<?xml version="1.0" encoding="utf-8"?>
<svg xmlns="http://www.w3.org/2000/svg" viewBox="0 0 500 500">
  <path d="M 355.834 163.621 L 357.202 164.989 L 363.219 173.741 L 365.953 177.569 L 368.962 181.672 L 373.063 187.688 L 377.713 194.525 L 381.269 199.448 L 384.277 203.824 L 387.558 208.473 L 390.567 212.849 L 393.849 217.498 L 397.677 222.968 L 400.959 227.617 L 403.694 231.446 L 405.882 234.728 L 409.437 239.651 L 413.266 245.12 L 416.548 249.769 L 419.283 253.872 L 423.111 259.068 L 426.666 264.264 L 428.855 267.272 L 432.41 272.196 L 435.417 276.57 L 439.245 282.041 L 442.531 286.69 L 446.085 291.886 L 449.913 297.356 L 452.099 300.637 L 451.826 302.005 L 449.366 306.654 L 445.538 313.218 L 443.078 317.594 L 434.87 329.9 L 432.136 333.729 L 428.855 338.378 L 424.479 343.848 L 421.744 347.403 L 417.915 352.053 L 415.454 355.061 L 412.446 358.617 L 410.532 360.804 L 407.523 364.086 L 405.608 366.274 L 402.327 370.103 L 399.592 372.837 L 398.224 374.478 L 386.191 386.512 L 384.004 388.427 L 382.089 390.067 L 378.807 388.427 L 372.517 384.324 L 367.867 381.315 L 362.671 378.034 L 344.621 366.548 L 338.878 362.992 L 332.314 358.89 L 326.298 355.061 L 319.187 350.685 L 314.538 347.677 L 307.974 343.575 L 302.231 340.019 L 296.215 336.191 L 290.745 332.635 L 286.369 329.9 L 280.899 326.345 L 273.242 321.696 L 268.593 318.961 L 258.2 312.397 L 254.645 309.936 L 254.098 309.389 L 253.825 307.749 L 253.825 254.966 L 254.371 253.872 L 255.739 252.777 L 257.106 251.41 L 260.114 248.676 L 262.303 246.761 L 265.038 244.3 L 268.046 241.839 L 271.601 238.557 L 272.148 238.557 L 272.148 238.009 L 275.156 235.548 L 277.071 233.634 L 279.259 231.719 L 282.267 228.984 L 284.455 227.07 L 288.284 223.788 L 291.019 221.327 L 291.839 221.053 L 291.839 220.506 L 294.848 218.045 L 298.129 215.037 L 300.317 213.122 L 303.872 209.84 L 308.521 206.012 L 310.709 203.824 L 313.717 201.363 L 317.82 197.534 L 320.828 195.073 L 323.29 192.611 L 326.298 190.15 L 328.212 188.235 L 330.401 186.321 L 333.136 183.86 L 336.143 181.398 L 339.972 177.843 L 342.16 175.928 L 345.989 172.646 L 349.27 169.638 L 351.459 167.724 L 354.194 165.263 L 355.561 163.895 L 355.834 163.621 Z" style="fill: rgb(255, 255, 255);"/>
  <path d="M 136.225 165.536 L 137.592 165.81 L 141.148 169.092 L 143.336 171.006 L 146.07 173.467 L 149.078 175.928 L 157.284 183.04 L 160.019 185.5 L 163.575 188.509 L 166.583 191.243 L 169.591 193.705 L 172.6 196.44 L 175.608 198.901 L 179.163 202.183 L 182.172 204.645 L 185.18 207.38 L 188.188 209.84 L 191.197 212.575 L 193.385 214.489 L 196.94 217.498 L 200.222 220.506 L 203.23 222.968 L 206.238 225.703 L 209.247 228.164 L 211.982 230.626 L 214.169 232.54 L 217.998 235.822 L 220.733 238.282 L 222.921 240.198 L 226.75 243.479 L 233.86 249.496 L 237.689 252.777 L 239.33 254.145 L 239.603 254.966 L 239.603 273.836 L 239.33 310.209 L 237.142 311.85 L 231.399 315.405 L 225.382 319.235 L 220.733 321.969 L 213.623 326.345 L 208.426 329.627 L 202.683 333.182 L 195.846 337.558 L 189.829 341.387 L 176.975 349.318 L 169.865 353.693 L 157.831 361.352 L 150.72 365.726 L 144.156 369.83 L 137.319 374.205 L 130.755 378.307 L 127.2 380.495 L 122.55 383.503 L 115.167 388.427 L 112.705 389.794 L 111.065 389.52 L 107.783 386.512 L 103.68 382.683 L 98.21 377.213 L 96.296 375.025 L 91.1 369.83 L 89.186 367.641 L 85.904 364.086 L 82.622 360.257 L 80.162 357.522 L 77.701 354.514 L 74.414 350.685 L 70.86 346.31 L 67.033 341.114 L 62.659 335.37 L 59.105 330.174 L 56.912 327.165 L 54.178 322.79 L 51.17 318.14 L 48.71 314.038 L 44.883 307.475 L 41.602 301.458 L 42.148 299.817 L 44.062 297.082 L 46.523 293.527 L 50.624 287.511 L 54.452 282.314 L 56.638 279.032 L 63.206 269.734 L 67.58 263.718 L 71.407 258.247 L 74.688 253.598 L 77.155 250.042 L 80.982 244.573 L 87.545 235.275 L 91.1 230.079 L 95.475 224.062 L 104.227 211.208 L 107.783 206.285 L 115.44 195.346 L 119.542 189.329 L 122.277 185.5 L 124.192 182.765 L 126.653 179.21 L 130.209 174.288 L 135.131 166.903 L 136.225 165.536 Z" style="fill: rgb(255, 255, 255);"/>
  <path d="M 447.999 82.671 L 449.366 83.217 L 454.287 88.141 L 456.747 91.148 L 460.028 95.251 L 463.315 99.901 L 466.869 105.643 L 470.149 111.66 L 474.25 120.685 L 477.258 128.89 L 479.723 137.367 L 481.364 143.931 L 483.004 153.23 L 484.098 161.434 L 484.645 167.45 L 484.918 172.92 L 484.918 189.876 L 484.371 197.534 L 483.551 205.465 L 481.638 218.045 L 479.177 230.352 L 476.711 240.198 L 473.157 251.958 L 468.782 264.811 L 464.408 276.297 L 461.947 281.767 L 460.307 285.869 L 459.208 285.869 L 457.567 283.681 L 454.287 278.759 L 449.913 272.469 L 446.631 267.819 L 442.531 261.802 L 439.518 257.427 L 435.691 251.958 L 432.41 247.308 L 429.402 242.932 L 426.666 239.104 L 415.18 222.694 L 411.625 217.771 L 403.968 206.833 L 399.592 200.542 L 396.037 195.62 L 391.66 189.329 L 388.105 184.133 L 384.823 179.758 L 381.815 175.381 L 378.534 170.732 L 376.072 167.177 L 372.79 162.528 L 370.055 158.7 L 367.047 154.323 L 368.141 152.956 L 370.329 151.042 L 373.884 148.034 L 376.072 146.119 L 380.175 142.29 L 382.909 140.102 L 387.558 135.727 L 388.105 135.727 L 388.105 135.18 L 391.114 132.718 L 394.669 129.436 L 396.857 127.522 L 399.592 125.061 L 402.327 122.873 L 405.882 119.591 L 408.89 117.13 L 412.719 113.574 L 415.728 111.113 L 418.462 108.378 L 421.471 105.917 L 425.299 102.361 L 427.489 100.447 L 431.043 97.439 L 434.323 94.43 L 437.057 91.969 L 439.245 90.055 L 442.531 87.046 L 445.538 84.585 L 447.452 82.944 L 447.999 82.671 Z" style="fill: rgb(255, 255, 255);"/>
  <path d="M 43.242 84.585 L 44.336 84.859 L 47.069 87.32 L 50.077 89.781 L 53.084 92.516 L 56.091 94.977 L 59.652 98.259 L 62.659 100.721 L 66.213 104.002 L 68.4 105.917 L 72.228 109.199 L 75.235 111.66 L 77.975 114.121 L 80.162 116.035 L 83.169 118.77 L 86.997 121.779 L 91.1 125.608 L 94.109 128.068 L 98.21 131.898 L 101.219 134.359 L 104.227 137.094 L 107.235 139.555 L 110.517 142.563 L 112.705 144.478 L 116.534 147.76 L 119.269 150.222 L 121.457 151.862 L 124.192 154.323 L 125.832 155.691 L 125.285 156.785 L 123.918 158.425 L 121.184 162.528 L 116.534 169.365 L 109.424 179.21 L 105.595 184.68 L 102.313 189.329 L 99.305 193.705 L 95.475 199.175 L 92.194 203.824 L 88.639 208.747 L 86.45 212.029 L 83.169 216.678 L 80.435 220.506 L 76.881 225.703 L 73.595 230.079 L 70.04 235.275 L 67.307 239.104 L 64.299 243.479 L 60.745 248.402 L 58.552 251.684 L 55.545 255.786 L 47.89 266.726 L 45.976 269.734 L 39.409 279.032 L 37.768 281.494 L 34.488 285.869 L 33.123 284.502 L 31.208 280.674 L 28.745 275.203 L 26.563 269.461 L 22.727 259.068 L 18.899 247.855 L 15.619 236.369 L 13.43 227.344 L 10.974 215.037 L 8.785 198.355 L 8.229 191.517 L 8.229 169.912 L 9.06 161.16 L 10.699 150.222 L 12.065 143.11 L 14.795 132.992 L 17.259 125.608 L 19.722 119.591 L 22.453 113.574 L 24.916 108.925 L 27.654 104.275 L 30.934 99.353 L 35.853 92.789 L 38.591 89.781 L 41.05 86.773 L 43.242 84.585 Z" style="fill: rgb(255, 255, 255);"/>
  <path d="M 202.41 71.184 L 203.777 71.458 L 206.785 73.372 L 210.341 76.107 L 213.348 78.568 L 217.725 82.124 L 220.46 84.585 L 222.647 86.499 L 226.203 89.781 L 232.493 96.071 L 234.407 98.259 L 237.689 101.814 L 239.33 104.002 L 239.603 104.822 L 239.603 234.728 L 239.056 235.275 L 233.586 230.352 L 230.578 227.891 L 227.296 224.882 L 224.288 222.421 L 221.553 219.96 L 218.545 217.498 L 215.536 214.763 L 213.348 212.849 L 210.614 210.388 L 207.606 207.926 L 204.05 204.645 L 201.042 202.183 L 198.307 199.721 L 196.119 197.807 L 192.564 194.799 L 189.829 192.338 L 186.821 189.876 L 184.633 187.688 L 181.899 185.5 L 179.163 183.04 L 176.155 180.578 L 173.146 177.843 L 170.959 175.928 L 166.857 172.373 L 164.122 169.912 L 161.113 167.45 L 159.199 165.536 L 156.189 163.075 L 152.36 159.793 L 148.805 156.785 L 145.796 154.323 L 144.977 153.503 L 145.25 152.409 L 147.985 148.854 L 150.993 144.478 L 153.728 140.649 L 156.737 136.274 L 161.113 129.983 L 164.122 125.881 L 167.404 121.232 L 169.591 117.95 L 172.873 113.301 L 176.702 107.831 L 179.984 103.182 L 182.718 99.353 L 184.906 96.071 L 188.462 91.148 L 190.376 88.414 L 193.932 83.491 L 197.487 78.295 L 200.495 73.919 L 202.41 71.184 Z" style="fill: rgb(255, 255, 255);"/>
  <path d="M 253.825 327.165 L 255.192 327.439 L 260.114 330.447 L 269.413 336.464 L 279.806 343.028 L 285.549 346.583 L 290.471 349.592 L 294.301 352.053 L 298.403 354.514 L 303.052 357.522 L 308.248 360.804 L 312.624 363.539 L 317.82 366.821 L 320.828 368.735 L 324.657 371.196 L 327.665 373.112 L 331.22 375.299 L 338.058 379.675 L 351.185 387.879 L 356.381 391.161 L 360.484 393.896 L 367.047 397.725 L 370.055 399.639 L 370.055 400.733 L 366.227 404.014 L 362.125 407.296 L 356.929 411.125 L 351.459 415.228 L 347.903 417.689 L 336.143 425.62 L 330.947 428.902 L 325.204 432.457 L 312.624 439.841 L 305.786 443.67 L 299.222 447.226 L 289.378 452.148 L 280.899 456.248 L 272.695 459.809 L 264.217 463.363 L 256.286 466.643 L 254.098 467.19 L 253.825 466.096 L 253.825 327.165 Z" style="fill: rgb(255, 255, 255);"/>
  <path d="M 290.471 70.637 L 291.566 71.184 L 294.848 75.833 L 298.129 80.756 L 301.411 85.406 L 305.239 90.875 L 307.974 94.704 L 310.709 98.806 L 313.171 102.361 L 316.179 106.737 L 319.461 111.386 L 323.016 116.582 L 326.845 122.052 L 329.032 125.334 L 332.588 130.257 L 335.323 134.085 L 345.169 148.034 L 347.083 150.495 L 348.177 151.862 L 344.348 155.143 L 342.16 157.058 L 338.605 160.34 L 335.596 162.802 L 333.136 165.263 L 330.127 167.724 L 326.845 170.732 L 323.837 173.194 L 319.734 177.023 L 315.906 180.305 L 312.898 183.04 L 309.889 185.5 L 306.334 188.782 L 304.146 190.696 L 295.941 198.081 L 292.659 201.089 L 289.651 203.824 L 287.463 205.738 L 284.455 208.473 L 282.267 210.388 L 278.164 214.216 L 275.156 216.678 L 271.874 219.686 L 269.687 221.6 L 266.131 224.609 L 262.849 227.617 L 259.021 230.899 L 256.56 233.087 L 254.645 234.728 L 254.098 234.728 L 253.825 233.36 L 253.825 104.275 L 256.013 101.541 L 258.474 98.806 L 261.482 95.524 L 268.32 88.687 L 270.507 86.773 L 273.789 83.764 L 276.797 81.303 L 280.353 78.295 L 283.907 75.56 L 288.284 72.278 L 290.471 70.637 Z" style="fill: rgb(255, 255, 255);"/>
  <path d="M 239.056 327.439 L 239.33 327.439 L 239.603 356.975 L 239.603 466.917 L 238.783 467.19 L 233.586 465.003 L 225.929 461.995 L 217.725 458.436 L 202.41 451.327 L 197.76 448.866 L 193.385 446.678 L 186 442.849 L 179.71 439.294 L 175.881 437.106 L 168.224 432.457 L 163.027 429.176 L 150.72 420.971 L 145.25 417.142 L 140.601 413.86 L 135.678 410.031 L 130.482 406.203 L 126.653 403.195 L 123.918 400.733 L 124.192 399.639 L 127.2 397.725 L 130.755 395.537 L 134.858 393.075 L 141.695 388.7 L 146.891 385.418 L 157.831 378.581 L 160.84 376.667 L 165.489 373.658 L 170.685 370.376 L 173.42 368.735 L 179.437 364.907 L 190.376 358.07 L 195.025 355.061 L 200.495 351.779 L 207.332 347.403 L 214.443 343.028 L 219.365 340.019 L 223.742 337.284 L 229.211 333.729 L 234.954 330.174 L 237.416 328.533 L 239.056 327.439 Z" style="fill: rgb(255, 255, 255);"/>
  <path d="M 130.755 47.664 L 134.858 47.664 L 142.515 48.211 L 153.728 49.853 L 161.387 51.493 L 167.95 53.408 L 175.608 56.143 L 179.71 57.784 L 185.454 60.245 L 190.65 63.253 L 188.735 66.262 L 181.625 76.107 L 179.437 79.389 L 175.608 84.859 L 172.6 89.234 L 164.395 100.721 L 161.387 105.096 L 155.642 113.301 L 152.087 118.497 L 149.352 122.326 L 147.438 125.061 L 144.977 128.616 L 141.968 132.992 L 140.327 135.18 L 135.405 142.563 L 134.858 142.563 L 134.31 143.931 L 133.217 143.384 L 129.388 140.102 L 126.38 137.367 L 124.192 135.453 L 121.457 132.992 L 118.722 130.804 L 115.44 127.795 L 112.432 125.334 L 109.15 122.326 L 106.142 119.864 L 102.587 116.582 L 100.399 114.668 L 97.39 112.207 L 85.904 102.361 L 82.622 99.353 L 80.435 97.439 L 76.608 94.157 L 73.868 91.696 L 70.86 89.234 L 66.76 85.679 L 64.573 83.764 L 61.839 81.303 L 58.011 78.295 L 55.272 75.833 L 54.725 74.739 L 56.091 73.372 L 62.385 69.269 L 68.674 65.714 L 77.701 61.065 L 85.083 57.784 L 91.374 55.322 L 99.578 52.587 L 108.603 50.399 L 118.175 48.758 L 125.832 47.938 L 130.755 47.664 Z" style="fill: rgb(255, 255, 255);"/>
  <path d="M 357.749 47.664 L 363.219 47.664 L 371.149 48.211 L 380.175 49.579 L 387.285 50.946 L 394.669 52.861 L 400.412 54.775 L 410.258 58.604 L 419.557 62.98 L 426.12 66.262 L 431.863 69.544 L 436.784 72.551 L 436.511 73.919 L 433.23 76.927 L 430.496 79.389 L 428.035 81.303 L 423.658 85.406 L 420.65 87.867 L 417.368 90.875 L 414.36 93.337 L 410.532 96.892 L 407.523 99.353 L 403.968 102.635 L 400.959 105.096 L 398.224 107.557 L 395.217 110.019 L 391.66 113.301 L 389.473 115.216 L 386.191 118.224 L 377.987 125.608 L 375.798 127.522 L 371.97 130.804 L 368.688 133.812 L 367.32 134.906 L 366.774 134.906 L 366.227 136 L 363.219 138.462 L 360.757 140.649 L 359.389 141.743 L 358.296 141.47 L 355.561 137.914 L 352.552 133.539 L 349.818 129.436 L 346.809 125.061 L 343.254 120.138 L 339.972 115.489 L 336.143 110.019 L 332.861 105.37 L 325.751 95.524 L 322.469 90.875 L 318.641 85.406 L 314.812 80.209 L 311.803 75.833 L 309.889 73.099 L 306.334 67.903 L 303.052 63.253 L 303.599 62.706 L 309.889 59.698 L 319.461 55.596 L 329.306 52.314 L 337.237 50.399 L 346.536 48.758 L 353.373 47.938 L 357.749 47.664 Z" style="fill: rgb(255, 255, 255);"/>
</svg>