<?xml version="1.0" encoding="UTF-8"?>
<svg version="1.1" viewBox="0 0 1885 801" width="1885" height="801" xmlns="http://www.w3.org/2000/svg">
<path transform="translate(0,2)" d="m0 0h121l175 14 5 1-2 17-6 34-2 5-17 12-15 10-110 75-16 11h-30l-87-3-16-1z" fill="#6D6D6D"/>
<path transform="translate(1847,537)" d="m0 0h9l17 12 10 8v162l-9 10-9 11-8 7-18 13-8 2-172 17h-15l-4-25-1-16 9-12 22-28 14-18 22-28 14-18 22-28 14-18 6-7 36-18 19-10 27-14z" fill="#B0B0B0"/>
<path transform="translate(682,614)" d="m0 0 16 1 93 15 10 3 36 26 16 11 18 13 17 12 6 5 2 50v19l-13 22-7 10h-45l-151-44-44-13-3-1-12-25-14-32v-6l14-13 10-8 15-14 10-8 15-14 10-8z" fill="#8C8C8C"/>
<path transform="translate(423,449)" d="m0 0h10l68 6 4 1 7 34 24 126 8 45-25 3-59 6h-7l-7-3-18-14-18-13-16-12-18-13-16-12-7-28-12-54v-14l10-36 8-4z" fill="#8C8C8C"/>
<path transform="translate(1056,603)" d="m0 0 7 1 27 15 17 10 2 6 8 51 17 113v2h-23l-182-30-6-2-1-1-1-8-1-30v-31l10-11 9-11 12-14 13-15 12-7 52-25z" fill="#8C8C8C"/>
<path transform="translate(2,195)" d="m0 0h53l65 2 21 2 31 8 117 32 28 8 2 2-12 104-2 12-11-3-68-28-85-35-85-35-46-19-8-4z" fill="#B0B0B0"/>
<path transform="translate(1107,81)" d="m0 0 11 2 60 16 128 35 17 5 1 2-5 16-19 57-14 41-5 14-4 2-24-1-81-5-9-1-17-33-8-16-22-84-9-33z" fill="#B0B0B0"/>
<path transform="translate(1588,477)" d="m0 0 6 2 23 14 19 12 21 13 24 15 21 13 24 15 19 12v5l-13 16-12 16-13 16-10 13-14 18-11 14-14 18-22 28-10 13-5-1-12-16-13-33-18-47-3-8-15-108v-11l13-13 7-8z" fill="#8C8C8C"/>
<path transform="translate(383,231)" d="m0 0h13l34 5 47 7 11 3-2 9-9 24-10 27-14 38-11 29-9 25-9 24-2 5-21 7-48 13h-7l-15-30-4-32v-29l5-43 7-59 18-14 7-5 12-3z" fill="#6D6D6D"/>
<path transform="translate(1142,2)" d="m0 0h217l14 27 10 19v12l-12 13-7 8-18 20-7 8-9 10-5 6-17-4-109-29-93-25 7-14 28-49z" fill="#5A5A5A"/>
<path transform="translate(965,31)" d="m0 0 6 1 44 18 41 17 32 13 2 5-3 10-16 28-30 52-14 24-16 28-14 24-15 26-3 4-12-2-30-10-3-5-4-20v-25l15-158 3-11 4-10 10-7z" fill="#8C8C8C"/>
<path transform="translate(349,619)" d="m0 0 5 2 17 12 21 16 14 10 19 14 17 13-4 13-22 57-17 44-1 1h-164l3-9 20-40 10-19 10-20 10-19 22-43 6-9 24-16z" fill="#C3C3C3"/>
<path transform="translate(1487,305)" d="m0 0h37l10 22 10 24 13 32 11 24 10 25 2 4 1 9-6 14-14 14-7 8-7 7h-18l-99-8-7-1-17-33-1-1v-14l15-69 10-9 11-9 15-13 14-12 11-9z" fill="#6D6D6D"/>
<path transform="translate(934,279)" d="m0 0 5 1 45 18 10 14 14 19 1 1 4 40v11l-13 24-13 23-53 23-7 1-31-13-35-15-3-6-17-62 2-5 9-16 16-27 8-14 23-7z" fill="#8C8C8C"/>
<path transform="translate(529,450)" d="m0 0h9l59 10 25 5 12 24 10 19 10 20 10 19 5 10v16l-1 20-3 8-15 14-11 9-14 13-11 9-14 13-9 7-13-1-20-4-3-10-28-147-7-38v-11z" fill="#B0B0B0"/>
<path transform="translate(0,249)" d="m0 0 17 6 38 16 37 15 80 33 80 33 41 17 9 4 5 43v2l-21-3-41-7-153-27-25-5-14-18-14-19-16-21-14-19-9-12z" fill="#6D6D6D"/>
<path transform="translate(304,516)" d="m0 0h16l5 21 8 35 7 32-5 5-19 13-12 8-42 5-120 13h-16l-11-11-14-16 2-4 16-15 11-9 14-12 11-9 11-10 11-9 10-9 11-9 13-11 5-1 65-5z" fill="#6D6D6D"/>
<path transform="translate(1679,413)" d="m0 0h7l17 5 36 12 17 6 32 11 9 10 8 10 26 32 12 15 1 3-3 3-23 12-33 17-19 10-9 5-9-3-21-13-22-14-20-12-14-9-13-8-10-6-14-9-21-13-15-9 1-8 6-12 33-16 28-13z" fill="#6D6D6D"/>
<path transform="translate(63,627)" d="m0 0 9 1 10 4 8 7 12 13 7 8 5 16 5 25 15 72 5 23v5h-139v-161z" fill="#393939"/>
<path transform="translate(535,680)" d="m0 0h23l24 5 5 8 16 36 7 16-2 41-1 13-1 2h-191l11-30 19-48 13-33 7-3z" fill="#B0B0B0"/>
<path transform="translate(1583,253)" d="m0 0 13 1 87 17 2 1 2 27-13 94-1 5-35 17-43 20-4-4-38-90-17-40 1-5 7-7 8-7 8-8 8-7 8-8z" fill="#B0B0B0"/>
<path transform="translate(1435,679)" d="m0 0 11 2 54 16 87 26 10 4 7 8 8 11 5 33v11l-5 11h-168l-9-11-12-17-13-18-5-7 1-6 16-35z" fill="#8C8C8C"/>
<path transform="translate(76,386)" d="m0 0 21 3 87 15 125 22 7 3 14 29-2 13-9 32-30 3-61 5h-19l-13-11-10-8-44-36-16-13-33-27-12-10-5-14z" fill="#8C8C8C"/>
<path transform="translate(286,643)" d="m0 0h13l-3 9-17 34-10 19-10 20-10 19-23 45-7 12h-66l-13-61-15-72v-7l12-2 74-8 66-7z" fill="#6D6D6D"/>
<path transform="translate(1335,150)" d="m0 0 4 2 28 28 8 7 63 63 8 7 30 30 1 5-48 39-14 11-5 2-7-3-20-12-56-34-23-14-10-6 1-7 21-64 14-41 4-12z" fill="#8C8C8C"/>
<path transform="translate(484,3)" d="m0 0h12l106 6 6 1 11 33 15 49-2 8-10 17-18 13-29 19-36 24-4-1-20-47-17-41-13-31-1-20z" fill="#8C8C8C"/>
<path transform="translate(1308,447)" d="m0 0h69l11 3 18 36-1 6-14 27-24 44-8 13-19-4-59-15-9-5-13-10-13-9-6-21-14-53v-8l1-2 20-1z" fill="#8C8C8C"/>
<path transform="translate(1675,111)" d="m0 0 6 1 12 11 11 9 12 11 10 8 12 11 10 8 12 11 10 8 1 1v5l-15 16-7 8-14 10-44 29-13-1-29-6-25-5-32-6-3-2-2-22v-22l10-14 16-21 14-19 4-5 25-13z" fill="#393939"/>
<path transform="translate(1421,494)" d="m0 0h23l86 7 15 2 12 86 3 21v12l-21-3-12-3-31-6-32-7-29-6-43-9-16-4-1-5 11-21 12-22 14-26z" fill="#393939"/>
<path transform="translate(304,81)" d="m0 0 4 1 45 135-2 5-18 14-4 3-12-2-41-11-129-35v-3l16-11 14-10 11-7 11-8 39-26 16-11 14-10 11-7 11-8z" fill="#6D6D6D"/>
<path transform="translate(772,215)" d="m0 0 4 1 16 15 8 7 13 12 8 7 12 11 30 27 7 6-2 4-13 19-19 28-1 1h-104l-44-13-6-9-6-11 1-4 7-7 7-8 11-11 7-8 11-11 7-8 12-12 7-8 11-11 6-11z" fill="#B0B0B0"/>
<path transform="translate(0,315)" d="m0 0 6 5 14 19 27 36 10 14 6 17 1 8 1 87v102l-28 6-34 7h-3z" fill="#8C8C8C"/>
<path transform="translate(979,441)" d="m0 0h7l9 14 14 25 8 14 9 15 13 23 13 22 3 5v22l-3 7-34 16-39 19-19 8-4-9-23-72-10-31v-20l5-28 1-7 4-4 29-12z" fill="#5A5A5A"/>
<path transform="translate(624,131)" d="m0 0 4 2 18 34 4 16 17 114v6l-17-2-75-16-8-4-7-7-8-7-7-7-8-7-16-15-3-4 1-5 17-33 5-9 43-29 12-8z" fill="#C3C3C3"/>
<path transform="translate(1397,73)" d="m0 0 11 1 56 15 5 5 9 163v17l-5-2-47-47-8-7-65-65-8-7-4-4v-5l10-11 9-11 14-15 9-11 12-13z" fill="#8C8C8C"/>
<path transform="translate(907,518)" d="m0 0h6l8 24 14 44 13 41 2 8-2 6-12 13-8 10-13 15-8 10-7-2-15-11-18-13-23-16-18-13-15-10v-8l16-50 6-20 3-6 35-11 30-9z" fill="#474747"/>
<path transform="translate(1198,457)" d="m0 0h12l6 21 11 43 3 13-3 5-19 14-14 10-19 14-18 13-19 14-10 7-11 1-22-12-14-8-9-5-1-1v-24l13-17 14-19 16-21 10-14 13-17 5-5z" fill="#474747"/>
<path transform="translate(569,298)" d="m0 0 11 1 26 5 56 12 8 3 6 12 3 9-2 8-13 25-8 14-13 24-15 28-5 8-15-1-16-3-41-7-17-3-1-5 15-55 10-35 10-36z" fill="#474747"/>
<path transform="translate(1126,630)" d="m0 0 8 1 26 9 30 11 5 8 14 24 34 58 9 15-2 8-16 30-5 7h-82l-9-57-15-99v-14z" fill="#B0B0B0"/>
<path transform="translate(770,474)" d="m0 0h36l8 25 10 34-2 11-21 65-2 7-6 1-106-17-3-1v-42l12-13 9-11 10-11 9-11 11-12 17-12z" fill="#8C8C8C"/>
<path transform="translate(500,247)" d="m0 0h9l10 10 8 7 17 16 10 9 6 5v7l-8 27-18 65-10 34-2 4-10 5-25-1-46-4-8-2 1-8 12-34 5-12 6-17 6-16 5-13 15-42 15-39z" fill="#6D6D6D"/>
<path transform="translate(73,414)" d="m0 0 7 4 10 9 14 11 17 14 77 63 1 5-15 13-14 12-11 9-14 12-15 13-11 9-10 9-14 11-5 4-9-2-7-3-1-1z" fill="#474747"/>
<path transform="translate(476,63)" d="m0 0 5 5 17 40 30 72-2 8-17 33-4 7-8 2-11-1-83-13-5-2 1-10 16-61 9-13 12-15 12-16 14-18 13-17z" fill="#8C8C8C"/>
<path transform="translate(1377,593)" d="m0 0 13 2 64 13 95 20 14 4 17 43 15 39v3l-14-3-138-41-9-3-8-8-9-11-11-12-9-11-10-11-9-11-1-1z" fill="#8C8C8C"/>
<path transform="translate(1741,32)" d="m0 0 5 2 15 14 13 12 8 7 14 13 8 7 12 11 8 7 10 9 5 4-1 6-17 36-7 15-18 6-11 3-6-1-11-10-11-9-11-10-11-9-11-10-11-9-11-10-11-9-4-3v-19l13-12z" fill="#474747"/>
<path transform="translate(1094,97)" d="m0 0 3 3 15 56 15 57-2 6-13 11-17 13-13 11-17 13-14 12-17 13-13 11-13 10-6-2-10-13-6-7v-7l15-26 14-24 16-28 14-24 16-28 14-24 16-28z" fill="#8C8C8C"/>
<path transform="translate(1015,388)" d="m0 0 5 1 40 14 15 6 12 11 7 7 8 7 8 8 8 7 8 8 5 4-1 5-13 18-13 17-28 38-12 16-5-5-16-28-14-24-16-28-14-24-6-11v-6l18-34z" fill="#8C8C8C"/>
<path transform="translate(345,2)" d="m0 0h20l19 59 20 64 3 12-18 68-2 4-19 4h-7l-27-80-18-54v-16l7-43 10-9z" fill="#B0B0B0"/>
<path transform="translate(1864,319)" d="m0 0 7 4 12 9v138l-11 25-8 16h-8l-13-16-8-10-11-14-13-16-9-12v-46l1-19 4-12 15-13 10-8 17-14z" fill="#5B5B5B"/>
<path transform="translate(1478,100)" d="m0 0 7 6 12 12 7 8 15 15 7 8 14 14 7 8 15 15 7 8 3 3 3 44-7 7-8 7-8 8-8 7-7 7-8 7-1 1h-38l-4-5-8-146z" fill="#6D6D6D"/>
<path transform="translate(913,36)" d="m0 0h25l-2 9-6 11-12 14-7 9-26 32-7 9-9 11-13 16-11 14-7 6-44 22h-4l-1-19v-81l19-9 36-15 47-20z" fill="#5B5B5B"/>
<path transform="translate(1164,275)" d="m0 0h18l85 5 9 2-6 26-6 22-16 28-12 20-16 27-3 3-21-21-7-8-8-8-7-8-9-9-5-7-5-16-5-19v-10l10-20z" fill="#B0B0B0"/>
<path transform="translate(1815,190)" d="m0 0 5 1 17 16 13 12 3 3 3 14 8 60v7l-12 11-13 10-14 12-13 10-5 4h-3l-22-66-16-50-1-3v-8l13-15 8-9 19-6z" fill="#B0B0B0"/>
<path transform="translate(1289,284)" d="m0 0 7 1 21 13 84 51 6 4-1 11-11 51-5 21-11-1-7-3-15-16-15-15-7-6-7-8-38-38-7-8-6-6v-7l7-28z" fill="#6E6E6E"/>
<path transform="translate(1750,2)" d="m0 0h133v72l-11 11-7 8-7 7-7 8-5 4-10-8-9-9-8-7-12-11-20-18-12-11-8-7-12-11-6-5v-12z" fill="#8C8C8C"/>
<path transform="translate(683,357)" d="m0 0 3 3 16 54 22 75v6l-9 11-13 15-9 10-9 11-6 7-4-4-10-20-10-19-11-22-10-19-3-6 1-8 16-30 10-18 13-24z" fill="#8C8C8C"/>
<path transform="translate(1302,721)" d="m0 0 10 1 75 25 9 11 12 17 13 18 4 6v2h-178l2-6 14-27 8-11 9-10 9-11 9-10z" fill="#B0B0B0"/>
<path transform="translate(621,2)" d="m0 0h111l8 8v43l-1 20-43 15-15 5-28-1-8-1-17-54-8-26v-7z" fill="#B0B0B0"/>
<path transform="translate(1277,569)" d="m0 0h8l69 17 4 2v14l-13 25-13 23-14 26-13 24-6 7-5-5-12-15-13-17-14-17-11-15v-6l10-20 10-19 11-21z" fill="#5B5B5B"/>
<path transform="translate(1546,55)" d="m0 0 7 1 9 9 7 8 9 10 10 11 7 8 11 12 7 8 5 6-2 6-12 16-13 17-14 19-2 1-6-4-19-19-7-8-15-15-7-8-15-15-7-8-15-15-6-8 3-3 19-8 15-7 27-12z" fill="#3A3A3A"/>
<path transform="translate(1697,301)" d="m0 0 5 2 17 14 14 11 16 13 14 11 16 13 13 10v38l-1 25-12-3-18-6-73-25-3-2v-15l9-64z" fill="#3A3A3A"/>
<path transform="translate(1436,2)" d="m0 0h149l-2 5-37 37-30 13-29 13-11 5-11-2-55-15-3-2v-18l9-11 11-13z" fill="#B0B0B0"/>
<path transform="translate(841,176)" d="m0 0 4 1 30 28 10 9 15 14 12 11 5 6 5 25 1 7-36 12-10 3-7-1-15-13-11-9-14-12-11-9-26-22-9-7 1-9 7-9 42-21z" fill="#B1B1B1"/>
<path transform="translate(736,360)" d="m0 0h99l6 18 11 40v6l-4 5-11 9-13 11-11 9-3 2h-35l-18-43-17-42-4-10z" fill="#B0B0B0"/>
<path transform="translate(1363,607)" d="m0 0 5 2 12 13 8 10 9 10 7 8 18 21-3 10-16 34-10 23-7 1-78-26-1-3 9-17 36-66z" fill="#5B5B5B"/>
<path transform="translate(802,2)" d="m0 0h44l42 16 24 9-2 4-27 12-36 15-40 17-19 8-11-1-23-7-1-1v-63l7-2z" fill="#C3C3C3"/>
<path transform="translate(1269,338)" d="m0 0 4 2 32 32 7 8 57 57v1l-19 1-64 1h-61v-28l17-28 9-16 9-15z" fill="#5A5A5A"/>
<path transform="translate(372,2)" d="m0 0h99l1 4 2 43-50 65-11 14-3-3-23-72-15-48z" fill="#8C8C8C"/>
<path transform="translate(1132,308)" d="m0 0h5l8 28 3 12-3 5-23 16-17 12-20 14-6 4-10-2-37-13-13-5-2-2-3-27v-13l9-3z" fill="#B0B0B0"/>
<path transform="translate(1153,356)" d="m0 0 5 2 12 12 7 8 7 7 7 8 9 9 7 8 5 6v26l-8 4-61 12-4-1-48-45-6-5 2-4 7-6 16-11 23-16z" fill="#484848"/>
<path transform="translate(936,57)" d="m0 0h2v11l-15 158-1 9-5-1-11-11-8-7-15-14-26-24-9-8 1-5 14-17 11-14 14-17 13-16 10-13 11-13 10-13z" fill="#8C8C8C"/>
<path transform="translate(1234,542)" d="m0 0 7 2 23 16 5 4-1 5-12 25-18 35-2 4-12 3-28 4-7-1-48-17-8-4 6-7 19-14 18-13 19-14 18-13 19-14z" fill="#8C8C8C"/>
<path transform="translate(1594,11)" d="m0 0 5 1 17 12 18 13 11 12 9 11 10 11 9 11v17l-27 15-20 11-5-4-7-8-10-10-7-8-9-9-7-8-9-9-7-8-7-7-2-10 11-10 11-9 12-11z" fill="#6E6E6E"/>
<path transform="translate(1128,224)" d="m0 0 4 1 21 42v7l-12 23-3 5-18 5-55 13-45 11h-6l-5-9 1-4 17-14 17-13 11-9 13-11 13-10 32-26z" fill="#5B5B5B"/>
<path transform="translate(857,432)" d="m0 0 9 1 30 13 20 9 3 2-2 17-6 32-31 10-42 13h-5l-16-56v-7l13-12 11-9 14-12z" fill="#3A3A3A"/>
<path transform="translate(1756,228)" d="m0 0 3 2 22 66 14 43 4 15-3 9-2 5-9-6-17-14-12-9-17-14-13-10-17-14-9-7-2-7v-20l39-26 11-8z" fill="#C4C4C4"/>
<path transform="translate(646,104)" d="m0 0h19l15 2 14 14 9 11 10 10 7 8 15 16 22 24 12 13v6l-10 9-4 1-16-8-30-16-21-12-28-15-5-5-14-26-5-9 1-8z" fill="#6E6E6E"/>
<path transform="translate(657,171)" d="m0 0 16 8 24 13 23 13 28 15 7 4-2 5-9 10-16 16-7 8-12 12-7 8-13 13-7 8-4 2-2-1-8-50-11-75z" fill="#6D6D6D"/>
<path transform="translate(741,83)" d="m0 0h8l21 6 8 3 1 3 2 69v29l-6 8-8-6-9-10-12-13-14-15-9-10-36-39-2-3 1-4z" fill="#8D8D8D"/>
<path transform="translate(973,2)" d="m0 0h164l-2 5-12 19-15 24-9 14-9-1-38-16-37-15-40-17-2-3z" fill="#8C8C8C"/>
<path transform="translate(691,345)" d="m0 0 10 3 19 9 9 4 8 19 11 28 7 16 5 13 5 12 3 9-1 5-20 15-14 10-5 2-8-28-10-34-12-40-8-28v-13z" fill="#3A3A3A"/>
<path transform="translate(1227,643)" d="m0 0h12l12 15 12 16 14 18 12 16 4 5-1 4-11 12-8 10-9 10-4 6-5-5-14-24-34-58-10-17 1-3z" fill="#6D6D6D"/>
<path transform="translate(1882,85)" d="m0 0h1v132l-17-2-9-3-17-16-6-5-9-14 1-5 11-22 11-23 6-9 9-10 9-11z" fill="#6E6E6E"/>
<path transform="translate(626,750)" d="m0 0 10 2 48 14 117 34v1h-177v-23z" fill="#6E6E6E"/>
<path transform="translate(1682,2)" d="m0 0h57l-2 18-3 6-53 53-7-6-12-15-12-16-1-5 15-15 7-8 9-9z" fill="#8C8C8C"/>
<path transform="translate(1817,773)" d="m0 0h18l7 23 1 5h-206l3-10 14-2 83-8 39-4z" fill="#6E6E6E"/>
<path transform="translate(915,778)" d="m0 0 16 1 127 21v1h-155l2-6 6-10z" fill="#6E6E6E"/>
<path transform="translate(1860,224)" d="m0 0 12 1 11 3v88l-8-6-6-9-9-68z" fill="#909090"/>
<path transform="translate(1869,753)" d="m0 0 5 1 8 8 1 2v37h-28l-4-8-5-17v-6l16-12z" fill="#B1B1B1"/>
<path transform="translate(1598,2)" d="m0 0h75l-4 6-18 18-7 8-6-2-36-26z" fill="#B1B1B1"/>
<path transform="translate(872,2)" d="m0 0h83l1 1v10l-12 7-5 1h-20l-46-17z" fill="#8D8D8D"/>
<path transform="translate(1377,2)" d="m0 0h46l-4 7-9 10-9 11-5 5-6-8-13-22z" fill="#5C5C5C"/>
<path transform="translate(1881,486)" d="m0 0h2v47l-6-3v-3l-6-2-3-2 1-10z" fill="#545454"/>
<path transform="translate(1881,739)" d="m0 0h2v19l-8-6-1-5z" fill="#595959"/>
</svg>
