<?xml version="1.0" encoding="utf-8"?>
<svg version="1.1" viewBox="-10.547 -13.672 1885 801" width="1885" height="801" xmlns="http://www.w3.org/2000/svg" xmlns:bx="https://boxy-svg.com"><defs><bx:export><bx:file format="svg" path="Sem título.svg"/></bx:export></defs><path d="M -12.972 -11.793 L 101.028 -11.793 L 142.028 -8.793 L 175.028 -5.793 L 239.028 -0.793 L 290.028 3.207 L 289.028 14.207 L 283.028 49.207 L 281.028 58.207 L 270.028 66.207 L 255.028 76.207 L 189.028 121.207 L 123.028 166.207 L 122.028 167.207 L 104.028 167.207 L 50.028 165.207 L -12.972 163.207 L -12.972 -11.793 Z" fill="#696969"/><path d="M 1838.03 523.207 L 1845.03 523.207 L 1859.03 533.207 L 1872.03 543.207 L 1872.03 705.207 L 1859.03 720.207 L 1851.03 729.207 L 1832.03 743.207 L 1826.03 747.207 L 1644.03 765.207 L 1634.03 765.207 L 1632.03 756.207 L 1628.03 725.207 L 1638.03 712.207 L 1660.03 684.207 L 1674.03 666.207 L 1696.03 638.207 L 1710.03 620.207 L 1732.03 592.207 L 1746.03 574.207 L 1751.03 568.207 L 1773.03 557.207 L 1792.03 547.207 L 1821.03 532.207 L 1838.03 523.207 Z" fill="#B0B0B0"/><path d="M 672.028 600.207 L 683.028 601.207 L 783.028 617.207 L 789.028 619.207 L 806.028 631.207 L 824.028 644.207 L 844.028 658.207 L 862.028 671.207 L 879.028 683.207 L 883.028 686.207 L 885.028 740.207 L 885.028 755.207 L 875.028 772.207 L 866.028 786.207 L 865.028 787.207 L 822.028 787.207 L 681.028 746.207 L 623.028 729.207 L 615.028 713.207 L 599.028 677.207 L 596.028 670.207 L 597.028 666.207 L 608.028 656.207 L 619.028 647.207 L 633.028 634.207 L 644.028 625.207 L 658.028 612.207 L 669.028 603.207 L 672.028 600.207 Z" fill="#8C8C8C"/><path d="M 415.028 435.207 L 494.028 442.207 L 499.028 466.207 L 524.028 598.207 L 533.028 647.207 L 445.028 656.207 L 439.028 655.207 L 422.028 642.207 L 350.028 589.207 L 346.028 574.207 L 330.028 503.207 L 330.028 496.207 L 341.028 457.207 L 348.028 454.207 L 415.028 435.207 Z" fill="#8C8C8C"/><path d="M 1047.03 589.207 L 1053.03 591.207 L 1080.03 606.207 L 1097.03 616.207 L 1102.03 646.207 L 1123.03 786.207 L 1123.03 787.207 L 1103.03 787.207 L 915.028 756.207 L 912.028 755.207 L 911.028 747.207 L 909.028 686.207 L 919.028 675.207 L 928.028 664.207 L 941.028 649.207 L 953.028 635.207 L 961.028 630.207 L 990.028 616.207 L 1038.03 593.207 L 1047.03 589.207 Z" fill="#8C8C8C"/><path d="M -8.972 181.207 L 22.028 181.207 L 120.028 184.207 L 133.028 186.207 L 265.028 222.207 L 308.028 234.207 L 301.028 296.207 L 295.028 347.207 L 294.028 351.207 L 285.028 348.207 L 248.028 333.207 L 168.028 300.207 L 83.028 265.207 L -1.972 230.207 L -8.972 227.207 L -8.972 181.207 Z" fill="#B0B0B0"/><path d="M 1097.03 67.207 L 1113.03 71.207 L 1227.03 102.207 L 1311.03 125.207 L 1313.03 126.207 L 1310.03 137.207 L 1291.03 193.207 L 1270.03 255.207 L 1266.03 257.207 L 1153.03 250.207 L 1143.03 231.207 L 1128.03 201.207 L 1104.03 110.207 L 1096.03 80.207 L 1096.03 68.207 L 1097.03 67.207 Z" fill="#B0B0B0"/><path d="M 1578.03 463.207 L 1589.03 469.207 L 1608.03 481.207 L 1632.03 496.207 L 1658.03 512.207 L 1677.03 524.207 L 1703.03 540.207 L 1722.03 552.207 L 1735.03 560.207 L 1734.03 564.207 L 1722.03 579.207 L 1712.03 592.207 L 1690.03 620.207 L 1676.03 638.207 L 1665.03 652.207 L 1651.03 670.207 L 1629.03 698.207 L 1615.03 716.207 L 1612.03 716.207 L 1599.03 699.207 L 1594.03 687.207 L 1572.03 630.207 L 1565.03 611.207 L 1549.03 496.207 L 1550.03 492.207 L 1561.03 481.207 L 1568.03 473.207 L 1578.03 463.207 Z" fill="#8C8C8C"/><path d="M 377.028 217.207 L 390.028 218.207 L 435.028 225.207 L 463.028 229.207 L 477.028 232.207 L 476.028 238.207 L 468.028 259.207 L 461.028 279.207 L 455.028 294.207 L 448.028 314.207 L 432.028 356.207 L 425.028 376.207 L 419.028 391.207 L 413.028 408.207 L 411.028 413.207 L 392.028 419.207 L 362.028 427.207 L 341.028 433.207 L 336.028 433.207 L 321.028 403.207 L 316.028 363.207 L 316.028 349.207 L 319.028 327.207 L 323.028 289.207 L 326.028 267.207 L 329.028 240.207 L 353.028 222.207 L 364.028 219.207 L 377.028 217.207 Z" fill="#737373"/><path d="M 339.028 605.207 L 343.028 607.207 L 361.028 620.207 L 381.028 635.207 L 419.028 663.207 L 431.028 672.207 L 430.028 677.207 L 411.028 726.207 L 395.028 767.207 L 387.028 788.207 L 223.028 788.207 L 225.028 782.207 L 240.028 752.207 L 250.028 733.207 L 273.028 688.207 L 290.028 655.207 L 303.028 630.207 L 320.028 618.207 L 332.028 610.207 L 339.028 605.207 Z" fill="#C3C3C3"/><path d="M 956.028 17.207 L 981.028 27.207 L 1063.03 61.207 L 1078.03 67.207 L 1079.03 71.207 L 1077.03 79.207 L 1061.03 107.207 L 1031.03 159.207 L 1017.03 183.207 L 1001.03 211.207 L 987.028 235.207 L 972.028 261.207 L 968.028 267.207 L 961.028 266.207 L 925.028 254.207 L 922.028 241.207 L 919.028 224.207 L 920.028 205.207 L 935.028 47.207 L 937.028 38.207 L 942.028 26.207 L 951.028 20.207 L 956.028 17.207 Z" fill="#8C8C8C"/><path d="M 1477.03 291.207 L 1513.03 291.207 L 1518.03 302.207 L 1527.03 323.207 L 1531.03 333.207 L 1538.03 349.207 L 1542.03 359.207 L 1547.03 372.207 L 1552.03 382.207 L 1560.03 401.207 L 1564.03 412.207 L 1569.03 422.207 L 1570.03 431.207 L 1564.03 445.207 L 1553.03 456.207 L 1546.03 464.207 L 1536.03 474.207 L 1523.03 474.207 L 1475.03 470.207 L 1434.03 467.207 L 1413.03 465.207 L 1403.03 446.207 L 1394.03 429.207 L 1394.03 422.207 L 1398.03 403.207 L 1400.03 394.207 L 1410.03 348.207 L 1477.03 291.207 Z" fill="#696969"/><path d="M 1132.248 -11.793 L 1348.03 -11.793 L 1372.03 34.207 L 1372.03 46.207 L 1314.03 111.207 L 1095.401 52.885 L 1132.248 -11.793 Z" fill="#5A5A5A"/><path d="M 520.028 436.207 L 531.028 437.207 L 611.028 451.207 L 622.028 473.207 L 632.028 492.207 L 642.028 512.207 L 652.028 531.207 L 658.028 543.207 L 658.028 556.207 L 657.028 579.207 L 655.028 586.207 L 641.028 599.207 L 630.028 608.207 L 616.028 621.207 L 605.028 630.207 L 591.028 643.207 L 580.028 652.207 L 569.028 651.207 L 548.028 647.207 L 546.028 642.207 L 518.028 495.207 L 509.028 447.207 L 509.028 442.207 L 520.028 436.207 Z" fill="#B0B0B0"/><path d="M -11.972 235.207 L -2.972 238.207 L 77.028 271.207 L 162.028 306.207 L 242.028 339.207 L 278.028 354.207 L 291.028 359.207 L 295.028 393.207 L 296.028 404.207 L 282.028 402.207 L 262.028 398.207 L 242.028 395.207 L 185.028 385.207 L 165.028 381.207 L 128.028 375.207 L 108.028 371.207 L 71.028 365.207 L 57.028 362.207 L 43.028 344.207 L 29.028 325.207 L 13.028 304.207 L -0.972 285.207 L -11.972 270.207 L -11.972 235.207 Z" fill="#696969"/><path d="M 305.028 502.207 L 309.028 502.207 L 312.028 513.207 L 315.028 528.207 L 319.028 544.207 L 324.028 568.207 L 328.028 584.207 L 329.028 591.207 L 318.028 599.207 L 293.028 616.207 L 230.028 623.207 L 127.028 634.207 L 116.028 634.207 L 108.028 626.207 L 101.028 618.207 L 90.028 606.207 L 105.028 592.207 L 120.028 579.207 L 142.028 561.207 L 147.028 556.207 L 158.028 547.207 L 167.028 539.207 L 192.028 518.207 L 201.028 510.207 L 242.028 507.207 L 267.028 505.207 L 288.028 503.207 L 305.028 502.207 Z" fill="#696969"/><path d="M 56.028 613.207 L 66.028 616.207 L 74.028 620.207 L 83.028 630.207 L 98.028 646.207 L 101.028 655.207 L 104.028 667.207 L 107.028 684.207 L 109.028 691.207 L 112.028 708.207 L 114.028 715.207 L 117.028 732.207 L 119.028 739.207 L 122.028 756.207 L 124.028 763.207 L 127.028 780.207 L 128.028 782.207 L 128.028 788.207 L -12.972 788.207 L -12.972 627.207 L 56.028 613.207 Z" fill="#393939"/><path d="M 1670.03 399.207 L 1678.03 400.207 L 1709.03 410.207 L 1717.03 413.207 L 1744.03 422.207 L 1751.03 425.207 L 1778.03 434.207 L 1813.03 477.207 L 1826.03 493.207 L 1833.03 502.207 L 1832.03 505.207 L 1799.03 522.207 L 1776.03 534.207 L 1749.03 548.207 L 1746.03 550.207 L 1742.03 549.207 L 1735.03 545.207 L 1722.03 537.207 L 1713.03 531.207 L 1706.03 527.207 L 1697.03 521.207 L 1690.03 517.207 L 1677.03 509.207 L 1668.03 503.207 L 1661.03 499.207 L 1652.03 493.207 L 1641.03 487.207 L 1631.03 480.207 L 1624.03 476.207 L 1615.03 470.207 L 1608.03 466.207 L 1595.03 458.207 L 1587.03 453.207 L 1590.03 443.207 L 1594.03 435.207 L 1627.03 419.207 L 1655.03 406.207 L 1670.03 399.207 Z" fill="#696969"/><path d="M 532.028 666.207 L 544.028 666.207 L 570.028 671.207 L 573.028 673.207 L 589.028 709.207 L 599.028 731.207 L 598.028 755.207 L 596.028 785.207 L 595.028 789.207 L 404.028 789.207 L 415.028 760.207 L 433.028 714.207 L 448.028 676.207 L 452.028 674.207 L 532.028 666.207 Z" fill="#B0B0B0"/><path d="M 1425.03 665.207 L 1437.03 668.207 L 1581.03 711.207 L 1587.03 714.207 L 1601.03 732.207 L 1606.03 766.207 L 1606.03 776.207 L 1601.03 788.207 L 1600.03 789.207 L 1435.03 789.207 L 1425.03 776.207 L 1415.03 762.207 L 1402.03 744.207 L 1394.03 733.207 L 1404.03 710.207 L 1423.03 669.207 L 1425.03 665.207 Z" fill="#8C8C8C"/><path d="M 1573.03 239.207 L 1582.03 240.207 L 1674.03 258.207 L 1676.03 285.207 L 1663.03 379.207 L 1662.03 384.207 L 1622.03 403.207 L 1584.03 421.207 L 1581.03 417.207 L 1564.03 377.207 L 1526.03 287.207 L 1525.03 284.207 L 1542.03 268.207 L 1558.03 253.207 L 1573.03 239.207 Z" fill="#B0B0B0"/><path d="M 866.118 282.286 L 925.021 265.418 L 972.81 284.535 L 998.376 319.394 L 1002.81 367.747 L 976.144 416.1 C 976.144 416.1 918.376 440.831 918.353 440.839 L 849.447 411.602 L 830.554 343.008 L 866.118 282.286 Z" fill="#8C8C8C" style=""/><path d="M 65.028 372.207 L 101.028 378.207 L 301.028 413.207 L 305.028 415.207 L 316.028 438.207 L 319.028 444.207 L 318.028 453.207 L 308.028 489.207 L 249.028 494.207 L 211.028 497.207 L 199.028 497.207 L 182.028 483.207 L 138.028 447.207 L 122.028 434.207 L 78.028 398.207 L 71.028 392.207 L 65.028 375.207 L 65.028 372.207 Z" fill="#8C8C8C"/><path d="M 281.028 629.207 L 289.028 629.207 L 280.028 648.207 L 265.028 677.207 L 244.028 718.207 L 209.028 786.207 L 208.028 787.207 L 143.028 787.207 L 137.028 760.207 L 115.028 655.207 L 114.028 647.207 L 181.028 640.207 L 206.028 637.207 L 247.028 633.207 L 281.028 629.207 Z" fill="#737373"/><path d="M 1325.03 136.207 L 1332.03 142.207 L 1357.03 167.207 L 1365.03 174.207 L 1428.03 237.207 L 1436.03 244.207 L 1465.03 273.207 L 1467.03 277.207 L 1457.03 285.207 L 1425.03 311.207 L 1414.03 320.207 L 1401.03 330.207 L 1396.03 329.207 L 1380.03 319.207 L 1296.03 268.207 L 1283.03 260.207 L 1295.03 223.207 L 1324.03 137.207 L 1325.03 136.207 Z" fill="#8C8C8C"/><path d="M 473.028 -10.793 L 546.028 -6.793 L 597.028 -3.793 L 604.028 17.207 L 623.028 79.207 L 622.028 84.207 L 612.028 102.207 L 597.028 113.207 L 553.028 142.207 L 528.028 159.207 L 525.028 158.207 L 510.028 123.207 L 492.028 80.207 L 475.028 39.207 L 473.028 -0.793 L 473.028 -10.793 Z" fill="#8C8C8C"/><path d="M 1339.03 433.207 L 1363.03 433.207 L 1377.03 436.207 L 1396.03 474.207 L 1384.03 497.207 L 1372.03 519.207 L 1358.03 545.207 L 1348.03 562.207 L 1283.03 546.207 L 1268.03 542.207 L 1253.03 531.207 L 1236.03 519.207 L 1233.03 510.207 L 1215.03 441.207 L 1216.03 437.207 L 1217.03 435.207 L 1339.03 433.207 Z" fill="#8C8C8C"/><path d="M 1666.03 97.207 L 1671.03 99.207 L 1683.03 110.207 L 1694.03 119.207 L 1705.03 129.207 L 1716.03 138.207 L 1727.03 148.207 L 1738.03 157.207 L 1749.03 167.207 L 1760.03 176.207 L 1761.03 180.207 L 1748.03 194.207 L 1741.03 202.207 L 1734.03 208.207 L 1680.03 244.207 L 1669.03 243.207 L 1657.03 240.207 L 1636.03 236.207 L 1623.03 234.207 L 1611.03 231.207 L 1590.03 227.207 L 1579.03 225.207 L 1576.03 191.207 L 1576.03 181.207 L 1590.03 162.207 L 1606.03 141.207 L 1620.03 122.207 L 1634.03 115.207 L 1639.03 112.207 L 1657.03 102.207 L 1666.03 97.207 Z" fill="#393939"/><path d="M -12.972 298.207 L -7.972 303.207 L 8.028 324.207 L 22.028 343.207 L 38.028 364.207 L 46.028 375.207 L 52.028 392.207 L 53.028 401.207 L 54.028 500.207 L 54.028 589.207 L -9.972 602.207 L -12.972 602.207 L -12.972 298.207 Z" fill="#8C8C8C"/><path d="M 1411.03 480.207 L 1424.03 480.207 L 1488.03 485.207 L 1534.03 489.207 L 1537.03 513.207 L 1549.03 597.207 L 1549.03 608.207 L 1530.03 605.207 L 1519.03 602.207 L 1506.03 600.207 L 1494.03 597.207 L 1482.03 595.207 L 1470.03 592.207 L 1456.03 589.207 L 1439.03 586.207 L 1427.03 583.207 L 1413.03 580.207 L 1396.03 577.207 L 1384.03 574.207 L 1370.03 571.207 L 1364.03 569.207 L 1365.03 565.207 L 1371.03 553.207 L 1378.03 541.207 L 1384.03 529.207 L 1391.03 517.207 L 1397.03 505.207 L 1404.03 493.207 L 1409.03 483.207 L 1411.03 480.207 Z" fill="#393939"/><path d="M 294.028 67.207 L 297.028 68.207 L 342.028 203.207 L 341.028 207.207 L 323.028 221.207 L 318.028 225.207 L 312.028 224.207 L 297.028 220.207 L 270.028 213.207 L 257.028 209.207 L 237.028 204.207 L 213.028 197.207 L 186.028 190.207 L 169.028 185.207 L 142.028 178.207 L 135.028 176.207 L 140.028 172.207 L 152.028 164.207 L 163.028 156.207 L 174.028 149.207 L 185.028 141.207 L 243.028 102.207 L 254.028 94.207 L 265.028 87.207 L 276.028 79.207 L 294.028 67.207 Z" fill="#737373"/><path d="M 970.028 427.207 L 975.028 427.207 L 981.028 436.207 L 987.028 447.207 L 994.028 459.207 L 1000.03 470.207 L 1004.03 477.207 L 1012.03 490.207 L 1017.03 499.207 L 1024.03 511.207 L 1030.03 522.207 L 1038.03 535.207 L 1043.03 544.207 L 1044.03 545.207 L 1044.03 567.207 L 1042.03 573.207 L 969.028 608.207 L 949.028 617.207 L 944.028 602.207 L 938.028 583.207 L 924.028 539.207 L 918.028 520.207 L 912.028 502.207 L 912.028 490.207 L 916.028 470.207 L 919.028 450.207 L 922.028 447.207 L 932.028 443.207 L 970.028 427.207 Z" fill="#5B5B5B"/><path d="M 615.028 117.207 L 618.028 121.207 L 636.028 155.207 L 638.028 164.207 L 656.028 284.207 L 656.028 289.207 L 646.028 288.207 L 562.028 270.207 L 557.028 267.207 L 541.028 252.207 L 528.028 240.207 L 512.028 225.207 L 507.028 219.207 L 519.028 196.207 L 530.028 174.207 L 542.028 166.207 L 585.028 137.207 L 615.028 117.207 Z" fill="#C3C3C3"/><path d="M 1387.03 59.207 L 1395.03 60.207 L 1455.03 76.207 L 1458.03 80.207 L 1467.03 246.207 L 1467.03 261.207 L 1460.03 255.207 L 1419.03 214.207 L 1411.03 207.207 L 1346.03 142.207 L 1338.03 135.207 L 1330.03 127.207 L 1331.03 123.207 L 1340.03 113.207 L 1349.03 102.207 L 1363.03 87.207 L 1372.03 76.207 L 1385.03 62.207 L 1387.03 59.207 Z" fill="#8C8C8C"/><path d="M 899.028 504.207 L 902.028 504.207 L 908.028 522.207 L 913.028 539.207 L 922.028 566.207 L 927.028 583.207 L 935.028 607.207 L 939.028 621.207 L 938.028 626.207 L 927.028 638.207 L 918.028 649.207 L 905.028 664.207 L 896.028 675.207 L 892.028 674.207 L 875.028 662.207 L 857.028 649.207 L 837.028 635.207 L 819.028 622.207 L 800.028 609.207 L 801.028 602.207 L 806.028 586.207 L 811.028 571.207 L 815.028 558.207 L 822.028 535.207 L 825.028 527.207 L 848.028 520.207 L 863.028 515.207 L 884.028 509.207 L 899.028 504.207 Z" fill="#474747"/><path d="M 1191.03 443.207 L 1199.03 443.207 L 1202.03 452.207 L 1207.03 473.207 L 1211.03 488.207 L 1215.03 504.207 L 1219.03 519.207 L 1218.03 523.207 L 1205.03 533.207 L 1191.03 543.207 L 1172.03 557.207 L 1154.03 570.207 L 1135.03 584.207 L 1117.03 597.207 L 1107.03 598.207 L 1089.03 588.207 L 1079.03 582.207 L 1071.03 578.207 L 1060.03 572.207 L 1060.03 561.207 L 1061.03 548.207 L 1077.03 527.207 L 1091.03 508.207 L 1103.03 492.207 L 1117.03 473.207 L 1130.03 456.207 L 1181.03 445.207 L 1191.03 443.207 Z" fill="#474747"/><path d="M 559.028 284.207 L 572.028 286.207 L 593.028 290.207 L 600.028 292.207 L 621.028 296.207 L 628.028 298.207 L 649.028 302.207 L 659.028 305.207 L 662.028 310.207 L 668.028 325.207 L 667.028 332.207 L 661.028 344.207 L 655.028 355.207 L 648.028 367.207 L 643.028 377.207 L 636.028 389.207 L 629.028 403.207 L 624.028 412.207 L 618.028 423.207 L 612.028 433.207 L 599.028 432.207 L 591.028 430.207 L 570.028 427.207 L 562.028 425.207 L 541.028 422.207 L 539.028 421.207 L 524.028 419.207 L 522.028 417.207 L 529.028 392.207 L 533.028 378.207 L 539.028 355.207 L 546.028 332.207 L 550.028 316.207 L 555.028 300.207 L 559.028 284.207 Z" fill="#474747"/><path d="M 1118.03 616.207 L 1139.03 623.207 L 1180.03 638.207 L 1189.03 654.207 L 1202.03 676.207 L 1236.03 734.207 L 1241.03 742.207 L 1240.03 748.207 L 1225.03 776.207 L 1218.03 788.207 L 1137.03 788.207 L 1132.03 757.207 L 1112.03 624.207 L 1112.03 618.207 L 1118.03 616.207 Z" fill="#B0B0B0"/><path d="M 760.028 460.207 L 795.028 460.207 L 801.028 479.207 L 813.028 520.207 L 812.028 527.207 L 791.028 592.207 L 788.028 602.207 L 785.028 603.207 L 673.028 585.207 L 673.028 563.207 L 674.028 543.207 L 685.028 531.207 L 694.028 520.207 L 704.028 509.207 L 713.028 498.207 L 723.028 487.207 L 737.028 477.207 L 756.028 463.207 L 760.028 460.207 Z" fill="#8C8C8C"/><path d="M 492.028 233.207 L 498.028 233.207 L 508.028 243.207 L 516.028 250.207 L 521.028 255.207 L 533.028 266.207 L 546.028 278.207 L 549.028 280.207 L 549.028 286.207 L 545.028 299.207 L 531.028 349.207 L 524.028 375.207 L 517.028 398.207 L 513.028 413.207 L 511.028 417.207 L 501.028 422.207 L 482.028 421.207 L 444.028 418.207 L 426.028 416.207 L 422.028 415.207 L 423.028 410.207 L 430.028 390.207 L 435.028 376.207 L 439.028 367.207 L 445.028 349.207 L 449.028 340.207 L 455.028 322.207 L 459.028 313.207 L 466.028 293.207 L 471.028 279.207 L 486.028 239.207 L 488.028 234.207 L 492.028 233.207 Z" fill="#737373"/><path d="M 62.028 400.207 L 66.028 402.207 L 79.028 413.207 L 89.028 421.207 L 188.028 502.207 L 188.028 506.207 L 175.028 517.207 L 161.028 529.207 L 150.028 538.207 L 135.028 551.207 L 121.028 563.207 L 110.028 572.207 L 100.028 581.207 L 89.028 590.207 L 79.028 598.207 L 74.028 597.207 L 63.028 593.207 L 62.028 519.207 L 62.028 400.207 Z" fill="#484848"/><path d="M 466.028 49.207 L 469.028 52.207 L 488.028 97.207 L 506.028 140.207 L 517.028 166.207 L 516.028 172.207 L 502.028 199.207 L 494.028 214.207 L 484.028 216.207 L 388.028 201.207 L 387.028 198.207 L 405.028 129.207 L 411.028 120.207 L 422.028 106.207 L 432.028 93.207 L 445.028 76.207 L 465.028 50.207 L 466.028 49.207 Z" fill="#8C8C8C"/><path d="M 1731.03 18.207 L 1737.03 22.207 L 1754.03 38.207 L 1762.03 45.207 L 1774.03 56.207 L 1804.03 83.207 L 1816.03 94.207 L 1829.03 105.207 L 1818.03 129.207 L 1807.03 152.207 L 1803.03 161.207 L 1791.03 165.207 L 1773.03 170.207 L 1769.03 169.207 L 1759.03 160.207 L 1748.03 151.207 L 1737.03 141.207 L 1726.03 132.207 L 1715.03 122.207 L 1704.03 113.207 L 1693.03 103.207 L 1682.03 94.207 L 1676.03 89.207 L 1676.03 72.207 L 1684.03 65.207 L 1731.03 18.207 Z" fill="#484848"/><path d="M 1366.03 579.207 L 1392.03 584.207 L 1536.03 614.207 L 1552.03 618.207 L 1570.03 664.207 L 1584.03 700.207 L 1584.03 703.207 L 1575.03 701.207 L 1437.03 660.207 L 1424.03 656.207 L 1417.03 649.207 L 1408.03 638.207 L 1397.03 626.207 L 1388.03 615.207 L 1378.03 604.207 L 1369.03 593.207 L 1366.03 590.207 L 1366.03 579.207 Z" fill="#8D8D8D"/><path d="M 1084.03 83.207 L 1086.03 86.207 L 1110.03 177.207 L 1116.03 200.207 L 1115.03 204.207 L 1098.03 218.207 L 1084.03 229.207 L 1068.03 242.207 L 1054.03 253.207 L 1037.03 267.207 L 1023.03 278.207 L 1007.03 291.207 L 997.028 299.207 L 993.028 298.207 L 982.028 284.207 L 975.028 276.207 L 976.028 270.207 L 986.028 253.207 L 1076.03 97.207 L 1084.03 83.207 Z" fill="#8D8D8D"/><path d="M 1005.03 374.207 L 1039.03 386.207 L 1063.03 395.207 L 1072.03 402.207 L 1084.03 414.207 L 1092.03 421.207 L 1100.03 429.207 L 1108.03 436.207 L 1116.03 444.207 L 1121.03 448.207 L 1119.03 452.207 L 1106.03 470.207 L 1090.03 491.207 L 1062.03 529.207 L 1053.03 541.207 L 1050.03 538.207 L 990.028 434.207 L 982.028 420.207 L 983.028 415.207 L 998.028 387.207 L 1005.03 374.207 Z" fill="#8C8C8C"/><path d="M 335.028 -11.793 L 354.028 -11.793 L 374.028 51.207 L 392.028 108.207 L 396.028 122.207 L 378.028 191.207 L 376.028 195.207 L 355.028 199.207 L 351.028 199.207 L 337.028 158.207 L 305.028 62.207 L 306.028 49.207 L 313.028 6.207 L 321.028 -0.793 L 334.028 -10.793 L 335.028 -11.793 Z" fill="#B0B0B0"/><path d="M 1854.03 305.207 L 1870.03 317.207 L 1872.03 318.207 L 1872.03 456.207 L 1861.03 481.207 L 1853.03 497.207 L 1846.03 497.207 L 1835.03 483.207 L 1822.03 467.207 L 1811.03 453.207 L 1798.03 437.207 L 1791.03 428.207 L 1791.03 403.207 L 1793.03 364.207 L 1797.03 352.207 L 1854.03 305.207 Z" fill="#5B5B5B"/><path d="M 1467.03 85.207 L 1482.03 100.207 L 1487.03 106.207 L 1504.03 123.207 L 1509.03 129.207 L 1525.03 145.207 L 1530.03 151.207 L 1547.03 168.207 L 1552.03 174.207 L 1561.03 183.207 L 1564.03 227.207 L 1517.03 271.207 L 1480.03 271.207 L 1476.03 267.207 L 1467.03 102.207 L 1467.03 85.207 Z" fill="#747474"/><path d="M 904.028 22.207 L 928.028 22.207 L 925.028 31.207 L 920.028 41.207 L 912.028 50.207 L 901.028 64.207 L 892.028 75.207 L 879.028 91.207 L 868.028 105.207 L 854.028 122.207 L 846.028 132.207 L 833.028 148.207 L 830.028 151.207 L 798.028 167.207 L 781.028 176.207 L 780.028 176.207 L 779.028 156.207 L 778.028 120.207 L 778.028 76.207 L 790.028 70.207 L 826.028 55.207 L 873.028 35.207 L 899.028 24.207 L 904.028 22.207 Z" fill="#5B5B5B"/><path d="M 1154.03 261.207 L 1179.03 262.207 L 1261.03 267.207 L 1265.03 268.207 L 1261.03 286.207 L 1253.03 316.207 L 1239.03 340.207 L 1220.03 372.207 L 1207.03 394.207 L 1189.03 376.207 L 1182.03 368.207 L 1174.03 360.207 L 1167.03 352.207 L 1158.03 343.207 L 1151.03 335.207 L 1148.03 328.207 L 1139.03 295.207 L 1140.03 288.207 L 1154.03 261.207 Z" fill="#B0B0B0"/><path d="M 1807.03 176.207 L 1814.03 182.207 L 1827.03 194.207 L 1842.03 208.207 L 1844.03 215.207 L 1853.03 283.207 L 1853.03 289.207 L 1843.03 298.207 L 1829.03 309.207 L 1816.03 320.207 L 1802.03 331.207 L 1796.03 336.207 L 1794.03 336.207 L 1777.03 285.207 L 1763.03 242.207 L 1754.03 214.207 L 1755.03 209.207 L 1767.03 195.207 L 1776.03 185.207 L 1807.03 176.207 Z" fill="#B0B0B0"/><path d="M 1740.03 -11.793 L 1872.03 -11.793 L 1872.03 60.207 L 1864.03 68.207 L 1857.03 76.207 L 1850.03 83.207 L 1843.03 91.207 L 1836.03 98.207 L 1828.03 92.207 L 1820.03 84.207 L 1812.03 77.207 L 1800.03 66.207 L 1780.03 48.207 L 1768.03 37.207 L 1760.03 30.207 L 1748.03 19.207 L 1738.03 10.207 L 1740.03 -11.793 Z" fill="#8C8C8C"/><path d="M 1279.03 270.207 L 1284.03 271.207 L 1300.03 281.207 L 1384.03 332.207 L 1397.03 340.207 L 1386.03 392.207 L 1379.03 422.207 L 1370.03 421.207 L 1363.03 419.207 L 1348.03 403.207 L 1334.03 389.207 L 1327.03 383.207 L 1320.03 375.207 L 1282.03 337.207 L 1275.03 329.207 L 1266.03 320.207 L 1267.03 314.207 L 1271.03 297.207 L 1276.03 279.207 L 1279.03 270.207 Z" fill="#737373"/><path d="M 1292.03 707.207 L 1299.03 708.207 L 1377.03 734.207 L 1391.03 753.207 L 1401.03 767.207 L 1414.03 785.207 L 1416.03 789.207 L 1235.03 789.207 L 1243.03 773.207 L 1256.03 749.207 L 1280.03 721.207 L 1292.03 707.207 Z" fill="#B0B0B0"/><path d="M 673.028 343.207 L 675.028 346.207 L 714.028 479.207 L 712.028 483.207 L 702.028 494.207 L 693.028 505.207 L 683.028 516.207 L 674.028 527.207 L 667.028 535.207 L 664.028 531.207 L 641.028 486.207 L 623.028 451.207 L 619.028 443.207 L 621.028 437.207 L 634.028 413.207 L 644.028 395.207 L 657.028 371.207 L 667.028 353.207 L 673.028 343.207 Z" fill="#8D8D8D"/><path d="M 611.028 -11.793 L 721.028 -11.793 L 729.028 -3.793 L 729.028 38.207 L 728.028 59.207 L 687.028 73.207 L 669.028 79.207 L 647.028 78.207 L 635.028 77.207 L 627.028 52.207 L 609.028 -5.793 L 610.028 -9.793 L 611.028 -11.793 Z" fill="#B0B0B0"/><path d="M 1267.03 555.207 L 1277.03 556.207 L 1345.03 573.207 L 1347.03 574.207 L 1347.03 588.207 L 1332.03 616.207 L 1319.03 639.207 L 1302.03 671.207 L 1292.03 689.207 L 1288.03 693.207 L 1255.03 651.207 L 1243.03 636.207 L 1233.03 623.207 L 1234.03 618.207 L 1248.03 591.207 L 1259.03 569.207 L 1267.03 555.207 Z" fill="#5B5B5B"/><path d="M 1537.03 41.207 L 1542.03 42.207 L 1553.03 54.207 L 1560.03 62.207 L 1571.03 74.207 L 1578.03 82.207 L 1589.03 94.207 L 1596.03 102.207 L 1607.03 114.207 L 1606.03 119.207 L 1592.03 137.207 L 1578.03 156.207 L 1565.03 173.207 L 1561.03 171.207 L 1543.03 153.207 L 1536.03 145.207 L 1521.03 130.207 L 1514.03 122.207 L 1499.03 107.207 L 1492.03 99.207 L 1477.03 84.207 L 1470.03 76.207 L 1467.03 72.207 L 1480.03 67.207 L 1493.03 61.207 L 1501.03 57.207 L 1509.03 54.207 L 1519.03 49.207 L 1527.03 46.207 L 1537.03 41.207 Z" fill="#3A3A3A"/><path d="M 1426.03 -11.793 L 1575.03 -11.793 L 1573.03 -7.793 L 1536.03 29.207 L 1495.03 47.207 L 1464.03 61.207 L 1422.03 50.207 L 1397.03 43.207 L 1396.03 40.207 L 1396.03 25.207 L 1405.03 14.207 L 1416.03 1.207 L 1426.03 -11.793 Z" fill="#B0B0B0"/><path d="M 1687.03 287.207 L 1693.03 291.207 L 1709.03 304.207 L 1723.03 315.207 L 1739.03 328.207 L 1753.03 339.207 L 1769.03 352.207 L 1778.03 359.207 L 1781.03 361.207 L 1781.03 394.207 L 1780.03 424.207 L 1776.03 423.207 L 1757.03 417.207 L 1747.03 413.207 L 1722.03 405.207 L 1712.03 401.207 L 1684.03 392.207 L 1674.03 388.207 L 1674.03 380.207 L 1682.03 325.207 L 1687.03 287.207 Z" fill="#3A3A3A"/><path d="M 832.028 162.207 L 839.028 168.207 L 854.028 182.207 L 866.028 193.207 L 905.028 229.207 L 907.028 234.207 L 912.028 263.207 L 865.028 278.207 L 860.028 277.207 L 846.028 265.207 L 835.028 256.207 L 821.028 244.207 L 810.028 235.207 L 784.028 213.207 L 773.028 204.207 L 775.028 196.207 L 781.028 188.207 L 815.028 171.207 L 832.028 162.207 Z" fill="#B0B0B0"/><path d="M 725.028 346.207 L 824.028 346.207 L 827.028 354.207 L 842.028 408.207 L 840.028 412.207 L 827.028 423.207 L 816.028 432.207 L 802.028 444.207 L 799.028 446.207 L 765.028 446.207 L 752.028 415.207 L 730.028 361.207 L 725.028 349.207 L 725.028 346.207 Z" fill="#B0B0B0"/><path d="M 1353.03 593.207 L 1357.03 595.207 L 1361.03 600.207 L 1365.03 604.207 L 1374.03 615.207 L 1379.03 620.207 L 1387.03 630.207 L 1392.03 635.207 L 1401.03 646.207 L 1411.03 657.207 L 1410.03 662.207 L 1392.03 701.207 L 1382.03 724.207 L 1377.03 725.207 L 1296.03 698.207 L 1301.03 688.207 L 1308.03 676.207 L 1313.03 666.207 L 1320.03 654.207 L 1325.03 644.207 L 1332.03 632.207 L 1337.03 622.207 L 1344.03 610.207 L 1349.03 600.207 L 1353.03 593.207 Z" fill="#5B5B5B"/><path d="M 796.028 -11.793 L 834.028 -11.793 L 854.028 -3.793 L 902.028 14.207 L 899.028 17.207 L 814.028 53.207 L 776.028 69.207 L 768.028 68.207 L 742.028 60.207 L 742.028 -2.793 L 778.028 -8.793 L 796.028 -11.793 Z" fill="#C3C3C3"/><path d="M 1259.03 324.207 L 1266.03 330.207 L 1288.03 352.207 L 1295.03 360.207 L 1358.03 423.207 L 1358.03 424.207 L 1324.03 425.207 L 1236.03 426.207 L 1214.03 426.207 L 1214.03 400.207 L 1259.03 324.207 Z" fill="#5B5B5B"/><path d="M 361.028 -11.793 L 460.028 -11.793 L 461.028 -6.793 L 463.028 35.207 L 450.028 52.207 L 410.028 104.207 L 402.028 114.207 L 400.028 111.207 L 377.028 39.207 L 362.028 -8.793 L 361.028 -11.793 Z" fill="#8C8C8C"/><path d="M 1124.03 294.207 L 1126.03 294.207 L 1132.03 315.207 L 1137.03 334.207 L 1135.03 338.207 L 1115.03 352.207 L 1098.03 364.207 L 1068.03 385.207 L 1062.03 384.207 L 1009.03 365.207 L 1007.03 363.207 L 1003.03 327.207 L 1003.03 323.207 L 1120.03 295.207 L 1124.03 294.207 Z" fill="#B0B0B0"/><path d="M 1143.03 342.207 L 1147.03 344.207 L 1176.03 375.207 L 1192.03 392.207 L 1201.03 402.207 L 1201.03 428.207 L 1196.03 431.207 L 1130.03 444.207 L 1098.03 414.207 L 1081.03 398.207 L 1074.03 392.207 L 1079.03 387.207 L 1142.03 343.207 L 1143.03 342.207 Z" fill="#474747"/><path d="M 926.028 43.207 L 927.028 43.207 L 927.028 52.207 L 911.028 221.207 L 908.028 221.207 L 898.028 211.207 L 890.028 204.207 L 874.028 189.207 L 862.028 178.207 L 849.028 166.207 L 837.028 155.207 L 839.028 151.207 L 865.028 119.207 L 873.028 109.207 L 886.028 93.207 L 897.028 79.207 L 911.028 62.207 L 922.028 48.207 L 926.028 43.207 Z" fill="#8D8D8D"/><path d="M 1584.03 -2.793 L 1588.03 -1.793 L 1624.03 24.207 L 1662.03 68.207 L 1662.03 85.207 L 1615.03 111.207 L 1547.276 39.284 L 1545.538 30.715 L 1584.03 -2.793 Z" fill="#757575"/><path d="M 1224.03 528.207 L 1229.03 530.207 L 1248.03 543.207 L 1259.03 551.207 L 1250.03 570.207 L 1232.03 605.207 L 1225.03 619.207 L 1217.03 621.207 L 1182.03 626.207 L 1132.03 608.207 L 1122.03 604.207 L 1127.03 599.207 L 1143.03 587.207 L 1161.03 574.207 L 1180.03 560.207 L 1198.03 547.207 L 1217.03 533.207 L 1224.03 528.207 Z" fill="#8D8D8D"/><path d="M 847.028 418.207 L 854.028 419.207 L 870.028 426.207 L 889.028 434.207 L 900.028 439.207 L 908.028 443.207 L 907.028 453.207 L 900.028 492.207 L 881.028 498.207 L 826.028 515.207 L 823.028 515.207 L 813.028 480.207 L 806.028 456.207 L 807.028 452.207 L 817.028 443.207 L 828.028 434.207 L 842.028 422.207 L 847.028 418.207 Z" fill="#393939"/><path d="M 1118.03 210.207 L 1121.03 211.207 L 1143.03 255.207 L 1142.03 260.207 L 1132.03 279.207 L 1127.03 288.207 L 1099.03 295.207 L 1068.03 302.207 L 1028.03 312.207 L 1007.03 317.207 L 1004.03 317.207 L 998.028 306.207 L 1015.03 292.207 L 1029.03 281.207 L 1042.03 271.207 L 1045.03 268.207 L 1065.03 252.207 L 1079.03 241.207 L 1096.03 227.207 L 1110.03 216.207 L 1118.03 210.207 Z" fill="#5C5C5C"/><path d="M 1746.03 214.207 L 1748.03 216.207 L 1771.03 286.207 L 1787.03 335.207 L 1788.03 341.207 L 1783.03 354.207 L 1775.03 348.207 L 1759.03 335.207 L 1746.03 325.207 L 1730.03 312.207 L 1716.03 301.207 L 1700.03 288.207 L 1690.03 280.207 L 1688.03 274.207 L 1687.03 254.207 L 1724.03 229.207 L 1746.03 214.207 Z" fill="#C3C3C3"/><path d="M 636.028 90.207 L 648.028 90.207 L 669.028 92.207 L 677.028 100.207 L 691.028 116.207 L 696.028 121.207 L 703.028 129.207 L 708.028 134.207 L 715.028 142.207 L 720.028 147.207 L 727.028 155.207 L 732.028 160.207 L 738.028 167.207 L 743.028 172.207 L 750.028 180.207 L 759.028 189.207 L 758.028 194.207 L 753.028 199.207 L 746.028 204.207 L 740.028 202.207 L 705.028 183.207 L 682.028 170.207 L 669.028 163.207 L 647.028 151.207 L 642.028 143.207 L 628.028 117.207 L 625.028 112.207 L 627.028 105.207 L 631.028 98.207 L 636.028 90.207 Z" fill="#747474"/><path d="M 646.028 157.207 L 661.028 165.207 L 685.028 178.207 L 708.028 191.207 L 738.028 207.207 L 745.028 211.207 L 739.028 219.207 L 720.028 238.207 L 713.028 246.207 L 701.028 258.207 L 694.028 266.207 L 681.028 279.207 L 674.028 287.207 L 669.028 292.207 L 666.028 291.207 L 660.028 256.207 L 655.028 220.207 L 652.028 200.207 L 647.028 167.207 L 646.028 157.207 Z" fill="#6A6A6A"/><path d="M 733.028 69.207 L 741.028 70.207 L 767.028 78.207 L 768.028 82.207 L 770.028 155.207 L 770.028 179.207 L 764.028 187.207 L 758.028 182.207 L 751.028 174.207 L 736.028 158.207 L 714.028 134.207 L 678.028 95.207 L 674.028 90.207 L 675.028 88.207 L 733.028 69.207 Z" fill="#8D8D8D"/><path d="M 962.028 -11.793 L 1127.03 -11.793 L 1120.03 -0.793 L 1107.03 20.207 L 1093.03 42.207 L 1088.03 50.207 L 1081.03 49.207 L 1042.03 33.207 L 1001.03 16.207 L 965.028 1.207 L 963.028 -1.793 L 962.028 -11.793 Z" fill="#8D8D8D"/><path d="M 681.028 331.207 L 691.028 335.207 L 706.028 342.207 L 718.028 347.207 L 723.028 360.207 L 728.028 371.207 L 736.028 392.207 L 742.028 405.207 L 747.028 419.207 L 751.028 427.207 L 756.028 441.207 L 758.028 447.207 L 748.028 455.207 L 730.028 468.207 L 719.028 476.207 L 718.028 476.207 L 711.028 451.207 L 705.028 432.207 L 698.028 407.207 L 692.028 388.207 L 685.028 363.207 L 679.028 343.207 L 679.028 335.207 L 681.028 331.207 Z" fill="#3A3A3A"/><path d="M 616.028 736.207 L 633.028 741.207 L 658.028 748.207 L 681.028 755.207 L 695.028 759.207 L 719.028 766.207 L 740.028 772.207 L 781.028 784.207 L 795.028 788.207 L 795.028 789.207 L 613.028 789.207 L 613.028 778.207 L 616.028 736.207 Z" fill="#737373"/><path d="M 1221.03 629.207 L 1228.03 629.207 L 1283.03 701.207 L 1272.03 713.207 L 1263.03 724.207 L 1254.03 734.207 L 1249.03 741.207 L 1246.03 738.207 L 1195.03 651.207 L 1186.03 636.207 L 1186.03 635.207 L 1208.03 631.207 L 1221.03 629.207 Z" fill="#6A6A6A"/><path d="M 1872.183 71.07 L 1872.03 203.207 L 1862.03 202.207 L 1848.03 199.207 L 1824.03 177.207 L 1814.03 162.207 L 1840.03 109.207 L 1872.183 71.07 Z" fill="#6A6A6A"/><path d="M 1814.03 759.207 L 1824.03 759.207 L 1829.03 777.207 L 1832.03 785.207 L 1832.03 789.207 L 1626.03 789.207 L 1629.03 779.207 L 1630.03 777.207 L 1724.03 768.207 L 1740.03 766.207 L 1784.03 762.207 L 1814.03 759.207 Z" fill="#6A6A6A"/><path d="M 1672.03 -11.793 L 1728.03 -11.793 L 1726.03 6.207 L 1724.03 11.207 L 1670.03 65.207 L 1665.03 60.207 L 1653.03 45.207 L 1640.03 28.207 L 1638.03 24.207 L 1652.03 10.207 L 1659.03 2.207 L 1669.03 -7.793 L 1672.03 -11.793 Z" fill="#8D8D8D"/><path d="M 905.028 764.207 L 917.028 765.207 L 989.028 777.207 L 1002.03 779.207 L 1056.03 788.207 L 1056.03 789.207 L 891.028 789.207 L 893.028 785.207 L 899.028 774.207 L 904.028 767.207 L 905.028 764.207 Z" fill="#747474"/><path d="M 1849.03 210.207 L 1859.03 211.207 L 1872.03 214.207 L 1872.03 302.207 L 1865.03 296.207 L 1859.03 288.207 L 1849.03 212.207 L 1849.03 210.207 Z" fill="#8E8E8E"/><path d="M 1859.03 739.207 L 1863.03 740.207 L 1872.03 750.207 L 1872.03 789.207 L 1845.03 789.207 L 1842.03 782.207 L 1835.03 759.207 L 1836.03 756.207 L 1854.03 743.207 L 1859.03 739.207 Z" fill="#B0B0B0"/><path d="M 1587.03 -11.793 L 1663.03 -11.793 L 1657.03 -4.793 L 1643.03 9.207 L 1636.03 17.207 L 1633.03 20.207 L 1628.03 18.207 L 1592.03 -7.793 L 1587.03 -11.793 Z" fill="#B0B0B0"/><path d="M 861.028 -11.793 L 944.028 -11.793 L 945.028 -10.793 L 945.028 -0.793 L 933.028 6.207 L 926.028 7.207 L 909.028 7.207 L 861.028 -10.793 L 861.028 -11.793 Z" fill="#8E8E8E"/><path d="M 1366.03 -11.793 L 1413.03 -11.793 L 1407.03 -3.793 L 1395.03 10.207 L 1386.03 21.207 L 1383.03 18.207 L 1366.03 -10.793 L 1366.03 -11.793 Z" fill="#5B5B5B"/><path d="M 1871.03 472.207 L 1872.03 472.207 L 1872.03 519.207 L 1866.03 515.207 L 1866.03 513.207 L 1861.03 511.207 L 1857.03 508.207 L 1859.03 499.207 L 1871.03 472.207 Z" fill="#515151"/><path d="M 1871.03 725.207 L 1872.03 725.207 L 1872.03 744.207 L 1865.03 738.207 L 1863.03 734.207 L 1871.03 725.207 Z" fill="#4E4E4E"/><path d="M 661.55 276.038 L 766.603 216.288 L 773.222 208.852 L 786.065 205.963 L 853.007 317.4 L 834.529 331.752 L 804.802 356.213 L 706.788 326.544 L 666.933 300.272 C 664.449 294.045 661.548 276.034 661.55 276.038 Z" fill="#B0B0B0" style="transform-box: fill-box; transform-origin: 50% 50%;" transform="matrix(0.95675, -0.29091, 0.29091, 0.95675, -0.000003, -0.000001)"/></svg>