<?xml version="1.0" encoding="UTF-8"?>
<svg version="1.1" viewBox="0 0 1885 801" width="1885" height="801" xmlns="http://www.w3.org/2000/svg">
<path transform="translate(0)" d="m0 0h1885v801h-1885z" fill="#F7F7F7"/>
<path transform="translate(0)" d="m0 0h114l41 3 33 3 64 5 51 4-1 11-6 35-2 9-11 8-15 10-66 45-66 45-1 1h-18l-54-2-63-2z" fill="#696969"/>
<path transform="translate(1851,535)" d="m0 0h7l14 10 13 10v162l-13 15-8 9-19 14-6 4-182 18h-10l-2-9-4-31 10-13 22-28 14-18 22-28 14-18 22-28 14-18 5-6 22-11 19-10 29-15z" fill="#B0B0B0"/>
<path transform="translate(685,612)" d="m0 0 11 1 100 16 6 2 17 12 18 13 20 14 18 13 17 12 4 3 2 54v15l-10 17-9 14-1 1h-43l-141-41-58-17-8-16-16-36-3-7 1-4 11-10 11-9 14-13 11-9 14-13 11-9z" fill="#8C8C8C"/>
<path transform="translate(428,447)" d="m0 0 79 7 5 24 25 132 9 49-88 9-6-1-17-13-72-53-4-15-16-71v-7l11-39 7-3z" fill="#8C8C8C"/>
<path transform="translate(1060,601)" d="m0 0 6 2 27 15 17 10 5 30 21 140v1h-20l-188-31-3-1-1-8-2-61 10-11 9-11 13-15 12-14 8-5 29-14 48-23z" fill="#8C8C8C"/>
<path transform="translate(4,193)" d="m0 0h31l98 3 13 2 132 36 43 12-7 62-6 51-1 4-9-3-37-15-80-33-85-35-85-35-7-3z" fill="#B0B0B0"/>
<path transform="translate(1110,79)" d="m0 0 16 4 114 31 84 23 2 1-3 11-19 56-21 62-4 2-113-7-10-19-15-30-24-91-8-30v-12z" fill="#B0B0B0"/>
<path transform="translate(1591,475)" d="m0 0 11 6 19 12 24 15 26 16 19 12 26 16 19 12 13 8-1 4-12 15-10 13-22 28-14 18-11 14-14 18-22 28-14 18h-3l-13-17-5-12-22-57-7-19-16-115 1-4 11-11 7-8z" fill="#8C8C8C"/>
<path transform="translate(390,229)" d="m0 0 13 1 45 7 28 4 14 3-1 6-8 21-7 20-6 15-7 20-16 42-7 20-6 15-6 17-2 5-19 6-30 8-21 6h-5l-15-30-5-40v-14l3-22 4-38 3-22 3-27 4-1v-2l7-5h2v-2l4-1v-2l7-5 11-3z" fill="#737373"/>
<path transform="translate(352,617)" d="m0 0 4 2 18 13 20 15 38 28 12 9-1 5-19 49-16 41-8 21h-164l2-6 15-30 10-19 23-45 17-33 13-25 17-12 12-8z" fill="#C3C3C3"/>
<path transform="translate(969,29)" d="m0 0 25 10 82 34 15 6 1 4-2 8-16 28-30 52-14 24-16 28-14 24-15 26-4 6-7-1-36-12-3-13-3-17 1-19 15-158 2-9 5-12 9-6z" fill="#8C8C8C"/>
<path transform="translate(1490,303)" d="m0 0h36l5 11 9 21 4 10 7 16 4 10 5 13 5 10 8 19 4 11 5 10 1 9-6 14-11 11-7 8-10 10h-13l-48-4-41-3-21-2-10-19-9-17v-7l4-19 2-9 10-46 3-5h2v-2l5-2v-2l4-3h2v-2l5-2v-2l8-6 3-1v-2l5-2v-2l8-6 3-1v-2l5-2v-2l8-6 3-1v-2z" fill="#696969"/>
<path transform="translate(1161)" d="m0 0h200l7 12 4 8v2h2l3 6 6 10 1 1 1 7v12l-12 13-7 8-12 14-11 12-7 8-9 10-9-1-66-18-13-4-17-4-102-28 2-6 5-7 4-7 2-4h2l1-4 4-7h2l2-5 1-3h2l1-4 7-11 2-4h2l1-4z" fill="#5A5A5A"/>
<path transform="translate(533,448)" d="m0 0 11 1 80 14 11 22 10 19 10 20 10 19 6 12v13l-1 23-2 7-14 13-11 9-14 13-11 9-14 13-11 9-11-1-21-4-2-5-28-147-9-48v-5z" fill="#B0B0B0"/>
<path transform="translate(1,247)" d="m0 0 9 3 80 33 85 35 80 33 36 15 13 5 4 34 1 11-14-2-20-4-20-3-57-10-20-4-37-6-20-4-37-6-14-3-14-18-14-19-16-21-14-19-11-15z" fill="#696969"/>
<path transform="translate(318,514)" d="m0 0h4l3 11 3 15 4 16 5 24 4 16 1 7-11 8-25 17-63 7-103 11h-11l-8-8-7-8-11-12 4-5h2v-2l9-7 15-13 22-18 5-5 11-9 9-8 11-9 3-3h2v-2l9-7 9-8 41-3 25-2 21-2z" fill="#696969"/>
<path transform="translate(69,625)" d="m0 0 10 3 8 4 9 10 15 16 3 9 3 12 3 17 2 7 3 17 2 7 3 17 2 7 3 17 2 7 3 17 1 2v6h-141v-161z" fill="#393939"/>
<path transform="translate(1683,411)" d="m0 0 8 1 31 10 8 3 27 9 7 3 27 9 2 4h2l2 5h2l2 5h2l2 5h2l2 5h2l2 5h2l11 14 13 16 7 9-1 3-33 17-23 12-27 14-3 2-4-1-7-4-13-8-9-6-7-4-9-6-7-4-13-8-9-6-7-4-9-6-11-6-10-7-7-4-9-6-7-4-13-8-8-5 3-10 4-8 33-16 28-13z" fill="#696969"/>
<path transform="translate(545,678)" d="m0 0h12l26 5 3 2 16 36 10 22-1 24-2 30-1 4h-191l11-29 18-46 15-38 4-2z" fill="#B0B0B0"/>
<path transform="translate(1438,677)" d="m0 0 12 3 144 43 6 3 14 18 5 34v10l-5 12-1 1h-165l-10-13-10-14-13-18-8-11 10-23 19-41z" fill="#8C8C8C"/>
<path transform="translate(1586,251)" d="m0 0 9 1 92 18 2 27-13 94-1 5-40 19-38 18-3-4-17-40-38-90-1-3 17-16 16-15z" fill="#B0B0B0"/>
<path transform="translate(928,288)" d="m0 0h7l37 12 6 5 11 14 8 10 4 7 3 23 1 9v11l-18 34-6 9-40 17-12 5-5-1-53-23-4-2-17-61 1-5 15-24 12-19 4-6 27-9z" fill="#8C8C8C"/>
<path transform="translate(78,384)" d="m0 0 36 6 200 35 4 2 11 23 3 6-1 9-10 36-59 5-38 3h-12l-17-14-44-36-16-13-44-36-7-6-6-17z" fill="#8C8C8C"/>
<path transform="translate(294,641)" d="m0 0h8l-9 19-15 29-21 41-35 68-1 1h-65l-6-27-22-105-1-8 67-7 25-3 41-4z" fill="#737373"/>
<path transform="translate(1338,148)" d="m0 0 7 6 25 25 8 7 63 63 8 7 29 29 2 4-10 8-32 26-11 9-13 10-5-1-16-10-84-51-13-8 12-37 29-86z" fill="#8C8C8C"/>
<path transform="translate(486,1)" d="m0 0 73 4 51 3 7 21 19 62-1 5-10 18-15 11-44 29-25 17-3-1-15-35-18-43-17-41-2-40z" fill="#8C8C8C"/>
<path transform="translate(1352,445)" d="m0 0h24l14 3 19 38-12 23-12 22-14 26-10 17-65-16-15-4-15-11-17-12-3-9-18-69 1-4 1-2z" fill="#8C8C8C"/>
<path transform="translate(1679,109)" d="m0 0 5 2 12 11 11 9 11 10 11 9 11 10 11 9 11 10 11 9 1 4-13 14-7 8-7 6-54 36-11-1-12-3-21-4-13-2-12-3-21-4-11-2-3-34v-10l14-19 16-21 14-19 14-7 5-3 18-10z" fill="#393939"/>
<path transform="translate(0,310)" d="m0 0 5 5 16 21 14 19 16 21 8 11 6 17 1 9 1 99v89l-64 13h-3z" fill="#8C8C8C"/>
<path transform="translate(1424,492)" d="m0 0h13l64 5 46 4 3 24 12 84v11l-19-3-11-3-13-2-12-3-12-2-12-3-14-3-17-3-12-3-14-3-17-3-12-3-14-3-6-2 1-4 6-12 7-12 6-12 7-12 6-12 7-12 5-10z" fill="#393939"/>
<path transform="translate(307,79)" d="m0 0 3 1 45 135-1 4-18 14-5 4-6-1-15-4-27-7-13-4-20-5-24-7-27-7-17-5-27-7-7-2 5-4 12-8 11-8 11-7 11-8 11-7h2v-2l20-13h2v-2l23-15 11-8 11-7 11-8 11-7h2v-2z" fill="#737373"/>
<path transform="translate(983,439)" d="m0 0h5l6 9 6 11 7 12 6 11 4 7 8 13 5 9 7 12 6 11 8 13 5 9 1 1v22l-2 6-73 35-20 9-5-15-6-19-14-44-6-19-6-18v-12l4-20 3-20 3-3 10-4z" fill="#5B5B5B"/>
<path transform="translate(628,129)" d="m0 0 3 4 18 34 2 9 18 120v5l-10-1-84-18-5-3-16-15-13-12-16-15-5-6 12-23 11-22 12-8 43-29z" fill="#C3C3C3"/>
<path transform="translate(1400,71)" d="m0 0 8 1 60 16 3 4 9 166v15l-7-6-41-41-8-7-65-65-8-7-8-8 1-4 9-10 9-11 14-15 9-11 13-14z" fill="#8C8C8C"/>
<path transform="translate(912,516)" d="m0 0h3l6 18 5 17 9 27 5 17 8 24 4 14-1 5-11 12-9 11-13 15-9 11-4-1-17-12-18-13-20-14-18-13-19-13 1-7 5-16 5-15 4-13 7-23 3-8 23-7 15-5 21-6z" fill="#474747"/>
<path transform="translate(1204,455)" d="m0 0h8l3 9 5 21 4 15 4 16 4 15-1 4-13 10-14 10-19 14-18 13-19 14-18 13-10 1-18-10-10-6-8-4-11-6v-11l1-13 16-21 14-19 12-16 14-19 13-17 51-11z" fill="#474747"/>
<path transform="translate(572,296)" d="m0 0 13 2 21 4 7 2 21 4 7 2 21 4 10 3 3 5 6 15-1 7-6 12-6 11-7 12-5 10-7 12-7 14-5 9-6 11-6 10-13-1-8-2-21-3-8-2-21-3-2-1-15-2-2-2 7-25 4-14 6-23 7-23 4-16 5-16z" fill="#474747"/>
<path transform="translate(1131,628)" d="m0 0 21 7 41 15 9 16 13 22 34 58 5 8-1 6-15 28-7 12h-81l-5-31-20-133v-6z" fill="#B0B0B0"/>
<path transform="translate(773,472)" d="m0 0h35l6 19 12 41-1 7-21 65-3 10-3 1-112-18v-22l1-20 11-12 9-11 10-11 9-11 10-11 14-10 19-14z" fill="#8C8C8C"/>
<path transform="translate(505,245)" d="m0 0h6l10 10 8 7 5 5 12 11 13 12 3 2v6l-4 13-14 50-7 26-7 23-4 15-2 4-10 5-19-1-38-3-18-2-4-1 1-5 7-20 5-14 4-9 6-18 4-9 6-18 4-9 7-20 5-14 15-40 2-5z" fill="#737373"/>
<path transform="translate(75,412)" d="m0 0 4 2 13 11 10 8 99 81v4l-13 11-14 12-11 9-15 13-14 12-11 9-10 9-11 9-10 8-5-1-11-4-1-74z" fill="#484848"/>
<path transform="translate(479,61)" d="m0 0 3 3 19 45 18 43 11 26-1 6-14 27-8 15-10 2-96-15-1-3 18-69 6-9 11-14 10-13 13-17 20-26z" fill="#8C8C8C"/>
<path transform="translate(1744,30)" d="m0 0 6 4 17 16 8 7 12 11 30 27 12 11 10 9 3 2v3h-2l-1 5-8 16-11 23-4 9-12 4-18 5-4-1-10-9-11-9-11-10-11-9-11-10-11-9-11-10-11-9-6-5v-17l8-7z" fill="#484848"/>
<path transform="translate(1379,591)" d="m0 0 26 5 144 30 16 4 18 46 14 36v3l-9-2-138-41-13-4-7-7-9-11-11-12-9-11-10-11-9-11-3-3z" fill="#8D8D8D"/>
<path transform="translate(1097,95)" d="m0 0 2 3 24 91 6 23-1 4-17 14-14 11-16 13-14 11-17 14-14 11-16 13-10 8-4-1-11-14-7-8 1-6 10-17 90-156z" fill="#8D8D8D"/>
<path transform="translate(1018,386)" d="m0 0 34 12 24 9 9 7 12 12 8 7 8 8 8 7 8 8 5 4-2 4-13 18-16 21-28 38-9 12-3-3-60-104-8-14 1-5 15-28z" fill="#8C8C8C"/>
<path transform="translate(348)" d="m0 0h19l20 63 18 57 4 14-18 69-2 4-21 4h-4l-14-41-32-96 1-13 7-43 8-7 13-10z" fill="#B0B0B0"/>
<path transform="translate(1868,316)" d="m0 0 4 1 11 12 2 1v138l-11 25-8 16h-7l-11-14-13-16-11-14-13-16-7-9v-25l2-39 4-12 4-4h2v-2l5-2v-2l8-6 3-1v-2l8-6 3-1v-2l5-2v-2l8-6 3-1v-2l8-6z" fill="#5B5B5B"/>
<path transform="translate(1480,97)" d="m0 0 15 15 5 6 17 17 5 6 16 16 5 6 17 17 5 6 9 9 3 44-47 44h-37l-4-4-9-165z" fill="#747474"/>
<path transform="translate(917,34)" d="m0 0h24l-3 9-5 10-8 9-11 14-9 11-13 16-11 14-14 17-8 10-13 16-3 3-32 16-17 9h-1l-1-20-1-36v-44l12-6 36-15 47-20 26-11z" fill="#5B5B5B"/>
<path transform="translate(1167,273)" d="m0 0 25 1 82 5 4 1-4 18-8 30-14 24-19 32-13 22-18-18-7-8-8-8-7-8-9-9-7-8-3-7-9-33 1-7z" fill="#B0B0B0"/>
<path transform="translate(1820,188)" d="m0 0 7 6 13 12 15 14 2 7 9 68v6l-10 9-14 11-13 11-14 11-6 5h-2l-17-51-14-43-9-28 1-5 12-14 9-10z" fill="#B0B0B0"/>
<path transform="translate(1753)" d="m0 0h132v72l-8 8-7 8-7 7-7 8-7 7-8-6-8-8-8-7-12-11-20-18-12-11-8-7-12-11-10-9z" fill="#8C8C8C"/>
<path transform="translate(1292,282)" d="m0 0 5 1 16 10 84 51 13 8-11 52-7 30-9-1-7-2-15-16-14-14-7-6-7-8-38-38-7-8-9-9 1-6 4-17 5-18z" fill="#737373"/>
<path transform="translate(1305,719)" d="m0 0 7 1 78 26 14 19 10 14 13 18 2 4h-181l8-16 13-24 24-28z" fill="#B0B0B0"/>
<path transform="translate(686,355)" d="m0 0 2 3 39 133-2 4-10 11-9 11-10 11-9 11-7 8-3-4-23-45-18-35-4-8 2-6 13-24 10-18 13-24 10-18z" fill="#8D8D8D"/>
<path transform="translate(624)" d="m0 0h110l8 8v42l-1 21-41 14-18 6-22-1-12-1-8-25-18-58 1-4z" fill="#B0B0B0"/>
<path transform="translate(1280,567)" d="m0 0 10 1 68 17 2 1v14l-15 28-13 23-17 32-10 18-4 4-33-42-12-15-10-13 1-5 14-27 11-22z" fill="#5B5B5B"/>
<path transform="translate(1550,53)" d="m0 0 5 1 11 12 7 8 11 12 7 8 11 12 7 8 11 12-1 5-14 18-14 19-13 17-4-2-18-18-7-8-15-15-7-8-15-15-7-8-15-15-7-8-3-4 13-5 13-6 8-4 8-3 10-5 8-3z" fill="#3A3A3A"/>
<path transform="translate(1439)" d="m0 0h149l-2 4-37 37-41 18-31 14-42-11-25-7-1-3v-15l9-11 11-13z" fill="#B0B0B0"/>
<path transform="translate(1700,299)" d="m0 0 6 4 16 13 14 11 16 13 14 11 16 13 9 7 3 2v33l-1 30-4-1-19-6-10-4-25-8-10-4-28-9-10-4v-8l8-55z" fill="#3A3A3A"/>
<path transform="translate(845,174)" d="m0 0 7 6 15 14 12 11 39 36 2 5 5 29-47 15-5-1-14-12-11-9-14-12-11-9-26-22-11-9 2-8 6-8 34-17z" fill="#B0B0B0"/>
<path transform="translate(738,358)" d="m0 0h99l3 8 15 54-2 4-13 11-11 9-14 12-3 2h-34l-13-31-22-54-5-12z" fill="#B0B0B0"/>
<path transform="translate(1366,605)" d="m0 0 4 2 4 5 4 4 9 11 5 5 8 10 5 5 9 11 10 11-1 5-18 39-10 23-5 1-81-27 5-10 7-12 5-10 7-12 5-10 7-12 5-10 7-12 5-10z" fill="#5B5B5B"/>
<path transform="translate(809)" d="m0 0h38l20 8 48 18-3 3-85 36-38 16-8-1-26-8v-63l36-6z" fill="#C3C3C3"/>
<path transform="translate(1272,336)" d="m0 0 7 6 22 22 7 8 63 63v1l-34 1-88 1h-22v-26l6-10 5-9 1-2h2l2-6 12-20 3-6h2l1-5h2l2-6z" fill="#5B5B5B"/>
<path transform="translate(374)" d="m0 0h99l1 5 2 42-13 17-40 52-8 10-2-3-23-72-15-48z" fill="#8C8C8C"/>
<path transform="translate(1137,306)" d="m0 0h2l6 21 5 19-2 4-20 14-17 12-30 21-6-1-53-19-2-2-4-36v-4l117-28z" fill="#B0B0B0"/>
<path transform="translate(1156,354)" d="m0 0 4 2 29 31 16 17 9 10v26l-5 3-66 13-32-30-17-16-7-6 5-5 15-10h2v-2l19-13 6-4h2v-2l19-13z" fill="#474747"/>
<path transform="translate(939,55)" d="m0 0h1v9l-16 169h-3l-10-10-8-7-16-15-12-11-13-12-12-11 2-4 26-32 8-10 13-16 11-14 14-17 11-14z" fill="#8D8D8D"/>
<path transform="translate(1597,9)" d="m0 0 4 1 36 26 9 7 6 8v2h2l5 7v2h2l2 5h2l5 7v2h2l3 4v17l-24 13-23 13-4-2-18-20-11-12-7-8-11-12-7-8-11-12 2-4z" fill="#757575"/>
<path transform="translate(1237,540)" d="m0 0 5 2 19 13 11 8-9 19-18 35-7 14-8 2-35 5-50-18-10-4 5-5 16-12 18-13 19-14 18-13 19-14z" fill="#8D8D8D"/>
<path transform="translate(860,430)" d="m0 0 7 1 16 7 19 8 11 5 8 4-1 10-7 39-19 6-55 17h-3l-10-35-7-24 1-4 10-9 11-9 14-12z" fill="#393939"/>
<path transform="translate(1131,222)" d="m0 0 3 1 22 44-1 5-10 19-5 9-28 7-31 7-40 10-21 5h-3l-6-11 17-14 14-11 13-10 3-3 20-16 14-11 17-14 14-11z" fill="#5C5C5C"/>
<path transform="translate(1759,226)" d="m0 0 2 2 23 70 16 49 1 6-5 13-8-6-16-13-13-10-16-13-14-11-16-13-10-8-2-6-1-20 37-25z" fill="#C3C3C3"/>
<path transform="translate(649,102)" d="m0 0h12l21 2 8 8 14 16 5 5 7 8 5 5 7 8 5 5 7 8 5 5 6 7 5 5 7 8 9 9-1 5-5 5-7 5-6-2-35-19-23-13-13-7-22-12-5-8-14-26-3-5 2-7 4-7z" fill="#747474"/>
<path transform="translate(659,169)" d="m0 0 15 8 24 13 23 13 30 16 7 4-6 8-19 19-7 8-12 12-7 8-13 13-7 8-5 5-3-1-6-35-5-36-3-20-5-33z" fill="#6A6A6A"/>
<path transform="translate(746,81)" d="m0 0 8 1 26 8 1 4 2 73v24l-6 8-6-5-7-8-15-16-22-24-36-39-4-5 1-2z" fill="#8D8D8D"/>
<path transform="translate(975)" d="m0 0h165l-7 11-13 21-14 22-5 8-7-1-39-16-41-17-36-15-2-3z" fill="#8D8D8D"/>
<path transform="translate(694,343)" d="m0 0 10 4 15 7 12 5 5 13 5 11 8 21 6 13 5 14 4 8 5 14 2 6-10 8-18 13-11 8h-1l-7-25-6-19-7-25-6-19-7-25-6-20v-8z" fill="#3A3A3A"/>
<path transform="translate(629,748)" d="m0 0 17 5 25 7 23 7 14 4 24 7 21 6 41 12 14 4v1h-182v-11z" fill="#737373"/>
<path transform="translate(1234,641)" d="m0 0h7l5 5 2 5h2l2 5h2l9 12v2h2l2 5h2l5 7v2h2l2 5h2l2 5h2l5 7v2h2l2 5h2l1 5-11 12-9 11-9 10-5 7-3-3-51-87-9-15v-1l22-4z" fill="#6A6A6A"/>
<path transform="translate(1884,88)" d="m0 0h1v127l-10-1-14-3-5-5-11-10-8-7-7-7-2-1v-2h-2l1-5 10-21h2l1-6 13-26 5-4 7-8 5-5 11-12z" fill="#6A6A6A"/>
<path transform="translate(1827,771)" d="m0 0h10l5 18 3 8v4h-206l3-10 1-2 94-9 16-2 44-4z" fill="#6A6A6A"/>
<path transform="translate(1685)" d="m0 0h56l-2 18-2 5-54 54-5-5-12-15-13-17-2-4 14-14 7-8 10-10z" fill="#8D8D8D"/>
<path transform="translate(918,776)" d="m0 0 12 1 72 12 13 2 54 9v1h-165l2-4 6-11 5-7z" fill="#747474"/>
<path transform="translate(1862,222)" d="m0 0 10 1 13 3v88l-7-6-6-8-10-76z" fill="#8E8E8E"/>
<path transform="translate(1872,751)" d="m0 0 4 1 9 10v39h-27l-3-7-7-23 1-3 18-13z" fill="#B0B0B0"/>
<path transform="translate(1600)" d="m0 0h76l-6 7-14 14-7 8-3 3-5-2-36-26z" fill="#B0B0B0"/>
<path transform="translate(1439)" d="m0 0h149l-2 4-4 4h-142l-3-3z" fill="#8C8C8C"/>
<path transform="translate(874)" d="m0 0h83l1 1v10l-12 7-7 1h-17l-48-18z" fill="#8E8E8E"/>
<path transform="translate(1379)" d="m0 0h47l-6 8-12 14-9 11-3-3-17-29z" fill="#5B5B5B"/>
<path transform="translate(1600)" d="m0 0h76l-6 7-1 1h-59l-10-7z" fill="#8D8D8D"/>
<path transform="translate(1884,484)" d="m0 0h1v47l-6-4v-2l-5-2-4-3 2-9z" fill="#515151"/>
<path transform="translate(624)" d="m0 0h110l1 3h-111z" fill="#8C8C8C"/>
<path transform="translate(1613,5)" d="m0 0h53l2 1v2h-57v-2z" fill="#8C8C8C"/>
<path transform="translate(348)" d="m0 0h19v5h-21l1-4z" fill="#909090"/>
<path transform="translate(1884,737)" d="m0 0h1v19l-7-6-2-4z" fill="#4E4E4E"/>
<path transform="translate(1610,4)" d="m0 0h58l3 2-3 2v-2h-57l-1 2-2-3z" fill="#B1B1B1"/>
</svg>
